<svg width="395" height="227" viewBox="0 0 395 227" fill="none" xmlns="http://www.w3.org/2000/svg">
<rect width="395" height="227" rx="30" fill="url(#paint0_linear_1_133)"/>
<mask id="mask0_1_133" style="mask-type:alpha" maskUnits="userSpaceOnUse" x="0" y="0" width="395" height="227">
<rect width="395" height="227" rx="30" fill="#ED713C"/>
</mask>
<g mask="url(#mask0_1_133)">
<ellipse opacity="0.1" cx="30.7222" cy="262.777" rx="201.262" ry="139.408" fill="black"/>
<ellipse opacity="0.08" cx="364.278" cy="-35.7772" rx="201.262" ry="139.408" fill="black"/>
</g>
<path d="M319.154 193.288C318.221 193.288 317.507 192.961 317.012 192.308C316.527 191.645 316.284 190.749 316.284 189.62C316.284 188.836 316.368 188.061 316.536 187.296C316.704 186.521 316.961 185.826 317.306 185.21C317.651 184.584 318.09 184.085 318.622 183.712C319.163 183.338 319.798 183.152 320.526 183.152C321.459 183.152 322.169 183.483 322.654 184.146C323.149 184.799 323.396 185.69 323.396 186.82C323.396 187.604 323.312 188.383 323.144 189.158C322.976 189.923 322.719 190.618 322.374 191.244C322.029 191.86 321.585 192.354 321.044 192.728C320.512 193.101 319.882 193.288 319.154 193.288ZM319.294 192.14C319.742 192.14 320.134 191.995 320.47 191.706C320.815 191.407 321.105 191.006 321.338 190.502C321.571 189.998 321.744 189.424 321.856 188.78C321.977 188.126 322.038 187.445 322.038 186.736C322.038 185.952 321.898 185.35 321.618 184.93C321.347 184.51 320.937 184.3 320.386 184.3C319.938 184.3 319.541 184.449 319.196 184.748C318.86 185.037 318.575 185.434 318.342 185.938C318.109 186.442 317.931 187.02 317.81 187.674C317.698 188.318 317.642 188.994 317.642 189.704C317.642 190.488 317.782 191.09 318.062 191.51C318.342 191.93 318.753 192.14 319.294 192.14ZM327.839 192.14C328.408 192.14 328.945 191.846 329.449 191.258C329.953 190.66 330.307 189.718 330.513 188.43C329.859 189.036 329.145 189.34 328.371 189.34C327.885 189.34 327.437 189.232 327.027 189.018C326.616 188.794 326.285 188.476 326.033 188.066C325.79 187.655 325.669 187.165 325.669 186.596C325.669 185.952 325.818 185.373 326.117 184.86C326.415 184.337 326.826 183.922 327.349 183.614C327.871 183.306 328.459 183.152 329.113 183.152C330.018 183.152 330.732 183.436 331.255 184.006C331.507 184.276 331.698 184.594 331.829 184.958C331.959 185.322 332.025 185.756 332.025 186.26C332.025 187.137 331.941 187.996 331.773 188.836C331.614 189.666 331.362 190.418 331.017 191.09C330.681 191.762 330.237 192.298 329.687 192.7C329.145 193.092 328.497 193.288 327.741 193.288C327.199 193.288 326.709 193.185 326.271 192.98C325.841 192.774 325.477 192.513 325.179 192.196L326.145 191.3C326.378 191.561 326.63 191.766 326.901 191.916C327.181 192.065 327.493 192.14 327.839 192.14ZM330.723 186.428C330.723 185.728 330.564 185.196 330.247 184.832C329.939 184.458 329.523 184.272 329.001 184.272C328.627 184.272 328.287 184.37 327.979 184.566C327.671 184.762 327.423 185.028 327.237 185.364C327.059 185.7 326.971 186.082 326.971 186.512C326.971 187.053 327.12 187.487 327.419 187.814C327.727 188.14 328.133 188.304 328.637 188.304C328.991 188.304 329.346 188.22 329.701 188.052C330.065 187.874 330.391 187.627 330.681 187.31C330.699 187.142 330.709 186.992 330.709 186.862C330.718 186.731 330.723 186.586 330.723 186.428ZM333.289 193.61L339.141 182.298L340.121 182.802L334.269 194.114L333.289 193.61ZM347.638 185.518C347.638 186.003 347.521 186.442 347.288 186.834C347.064 187.216 346.765 187.566 346.392 187.884C346.019 188.201 345.617 188.509 345.188 188.808C344.768 189.097 344.357 189.4 343.956 189.718C343.564 190.026 343.223 190.362 342.934 190.726C342.645 191.09 342.453 191.505 342.36 191.972H346.812L346.616 193.12H340.988C340.979 193.045 340.969 192.961 340.96 192.868C340.951 192.774 340.946 192.686 340.946 192.602C340.946 191.948 341.072 191.374 341.324 190.88C341.585 190.376 341.917 189.928 342.318 189.536C342.729 189.144 343.158 188.784 343.606 188.458C344.063 188.131 344.493 187.823 344.894 187.534C345.305 187.235 345.636 186.932 345.888 186.624C346.149 186.316 346.28 185.98 346.28 185.616C346.28 185.205 346.14 184.878 345.86 184.636C345.58 184.393 345.235 184.272 344.824 184.272C344.423 184.272 344.059 184.346 343.732 184.496C343.415 184.645 343.097 184.855 342.78 185.126L342.192 184.174C342.575 183.866 342.99 183.618 343.438 183.432C343.886 183.245 344.399 183.152 344.978 183.152C345.51 183.152 345.972 183.254 346.364 183.46C346.765 183.665 347.078 183.945 347.302 184.3C347.526 184.654 347.638 185.06 347.638 185.518ZM350.316 191.412C350.568 191.636 350.867 191.813 351.212 191.944C351.558 192.074 351.936 192.14 352.346 192.14C353.018 192.14 353.578 191.958 354.026 191.594C354.474 191.23 354.698 190.73 354.698 190.096C354.698 189.554 354.498 189.111 354.096 188.766C353.704 188.42 353.13 188.248 352.374 188.248H350.988L351.842 183.32H356.672L356.476 184.454H352.836L352.374 187.114H352.64C353.406 187.114 354.04 187.244 354.544 187.506C355.048 187.758 355.426 188.098 355.678 188.528C355.93 188.948 356.056 189.41 356.056 189.914C356.056 190.576 355.898 191.164 355.58 191.678C355.263 192.182 354.82 192.578 354.25 192.868C353.69 193.148 353.032 193.288 352.276 193.288C351.716 193.288 351.198 193.218 350.722 193.078C350.256 192.928 349.868 192.732 349.56 192.49L350.316 191.412Z" fill="white"/>
<path opacity="0.9" d="M38.949 191.412C39.201 191.636 39.4997 191.813 39.845 191.944C40.1904 192.074 40.5684 192.14 40.979 192.14C41.651 192.14 42.211 191.958 42.659 191.594C43.107 191.23 43.331 190.73 43.331 190.096C43.331 189.554 43.1304 189.111 42.729 188.766C42.337 188.42 41.763 188.248 41.007 188.248H39.621L40.475 183.32H45.305L45.109 184.454H41.469L41.007 187.114H41.273C42.0384 187.114 42.673 187.244 43.177 187.506C43.681 187.758 44.059 188.098 44.311 188.528C44.563 188.948 44.689 189.41 44.689 189.914C44.689 190.576 44.5304 191.164 44.213 191.678C43.8957 192.182 43.4524 192.578 42.883 192.868C42.323 193.148 41.665 193.288 40.909 193.288C40.349 193.288 39.831 193.218 39.355 193.078C38.8884 192.928 38.501 192.732 38.193 192.49L38.949 191.412ZM54.0596 185.518C54.0596 186.003 53.9429 186.442 53.7095 186.834C53.4855 187.216 53.1869 187.566 52.8136 187.884C52.4402 188.201 52.0389 188.509 51.6096 188.808C51.1895 189.097 50.7789 189.4 50.3776 189.718C49.9856 190.026 49.6449 190.362 49.3555 190.726C49.0662 191.09 48.8749 191.505 48.7815 191.972H53.2336L53.0376 193.12H47.4095C47.4002 193.045 47.3909 192.961 47.3815 192.868C47.3722 192.774 47.3675 192.686 47.3675 192.602C47.3675 191.948 47.4935 191.374 47.7455 190.88C48.0069 190.376 48.3382 189.928 48.7395 189.536C49.1502 189.144 49.5795 188.784 50.0276 188.458C50.4849 188.131 50.9142 187.823 51.3156 187.534C51.7262 187.235 52.0576 186.932 52.3096 186.624C52.5709 186.316 52.7016 185.98 52.7016 185.616C52.7016 185.205 52.5616 184.878 52.2816 184.636C52.0016 184.393 51.6562 184.272 51.2456 184.272C50.8442 184.272 50.4802 184.346 50.1536 184.496C49.8362 184.645 49.5189 184.855 49.2015 185.126L48.6135 184.174C48.9962 183.866 49.4115 183.618 49.8595 183.432C50.3075 183.245 50.8209 183.152 51.3995 183.152C51.9316 183.152 52.3936 183.254 52.7855 183.46C53.1869 183.665 53.4996 183.945 53.7236 184.3C53.9476 184.654 54.0596 185.06 54.0596 185.518ZM58.6841 187.744C58.2361 187.464 57.9001 187.165 57.6761 186.848C57.4614 186.521 57.3541 186.134 57.3541 185.686C57.3541 185.2 57.4941 184.766 57.7741 184.384C58.0541 184.001 58.4227 183.702 58.8801 183.488C59.3467 183.264 59.8601 183.152 60.4201 183.152C60.9894 183.152 61.4841 183.259 61.9041 183.474C62.3241 183.688 62.6461 183.973 62.8701 184.328C63.1034 184.673 63.2201 185.042 63.2201 185.434C63.2201 186.05 63.0334 186.549 62.6601 186.932C62.2961 187.305 61.7594 187.622 61.0501 187.884C61.6847 188.182 62.1514 188.523 62.4501 188.906C62.7581 189.288 62.9121 189.755 62.9121 190.306C62.9121 190.912 62.7441 191.44 62.4081 191.888C62.0814 192.336 61.6381 192.681 61.0781 192.924C60.5181 193.166 59.8881 193.288 59.1881 193.288C58.5814 193.288 58.0354 193.18 57.5501 192.966C57.0647 192.751 56.6821 192.452 56.4021 192.07C56.1221 191.687 55.9821 191.248 55.9821 190.754C55.9821 190.016 56.2061 189.405 56.6541 188.92C57.1114 188.425 57.7881 188.033 58.6841 187.744ZM60.3501 184.188C60.0607 184.188 59.7807 184.244 59.5101 184.356C59.2487 184.468 59.0341 184.636 58.8661 184.86C58.6981 185.074 58.6141 185.345 58.6141 185.672C58.6141 186.026 58.7541 186.348 59.0341 186.638C59.3234 186.918 59.6781 187.16 60.0981 187.366C60.6114 187.216 61.0501 186.988 61.4141 186.68C61.7781 186.362 61.9601 185.998 61.9601 185.588C61.9601 185.205 61.8107 184.878 61.5121 184.608C61.2227 184.328 60.8354 184.188 60.3501 184.188ZM59.3281 192.168C59.7201 192.168 60.0887 192.098 60.4341 191.958C60.7794 191.808 61.0547 191.598 61.2601 191.328C61.4747 191.057 61.5821 190.735 61.5821 190.362C61.5821 189.951 61.4187 189.573 61.0921 189.228C60.7654 188.882 60.2987 188.598 59.6921 188.374C59.2907 188.458 58.9081 188.598 58.5441 188.794C58.1801 188.98 57.8814 189.223 57.6481 189.522C57.4241 189.811 57.3121 190.156 57.3121 190.558C57.3121 191.015 57.5034 191.398 57.8861 191.706C58.2687 192.014 58.7494 192.168 59.3281 192.168ZM71.8486 185.518C71.8486 186.003 71.7319 186.442 71.4986 186.834C71.2746 187.216 70.9759 187.566 70.6026 187.884C70.2293 188.201 69.8279 188.509 69.3986 188.808C68.9786 189.097 68.5679 189.4 68.1666 189.718C67.7746 190.026 67.4339 190.362 67.1446 190.726C66.8553 191.09 66.6639 191.505 66.5706 191.972H71.0226L70.8266 193.12H65.1986C65.1893 193.045 65.1799 192.961 65.1706 192.868C65.1613 192.774 65.1566 192.686 65.1566 192.602C65.1566 191.948 65.2826 191.374 65.5346 190.88C65.7959 190.376 66.1273 189.928 66.5286 189.536C66.9393 189.144 67.3686 188.784 67.8166 188.458C68.2739 188.131 68.7033 187.823 69.1046 187.534C69.5153 187.235 69.8466 186.932 70.0986 186.624C70.3599 186.316 70.4906 185.98 70.4906 185.616C70.4906 185.205 70.3506 184.878 70.0706 184.636C69.7906 184.393 69.4453 184.272 69.0346 184.272C68.6333 184.272 68.2693 184.346 67.9426 184.496C67.6253 184.645 67.3079 184.855 66.9906 185.126L66.4026 184.174C66.7853 183.866 67.2006 183.618 67.6486 183.432C68.0966 183.245 68.6099 183.152 69.1886 183.152C69.7206 183.152 70.1826 183.254 70.5746 183.46C70.9759 183.665 71.2886 183.945 71.5126 184.3C71.7366 184.654 71.8486 185.06 71.8486 185.518ZM80.1484 188.528L80.3164 187.506H80.7644C81.6791 187.506 82.4117 187.342 82.9624 187.016C83.5131 186.68 83.7884 186.227 83.7884 185.658C83.7884 185.228 83.6391 184.888 83.3404 184.636C83.0511 184.374 82.6777 184.244 82.2204 184.244C81.7911 184.244 81.4224 184.314 81.1144 184.454C80.8064 184.584 80.5311 184.738 80.2884 184.916L79.7984 183.964C80.1251 183.73 80.4984 183.539 80.9184 183.39C81.3477 183.231 81.8331 183.152 82.3744 183.152C82.9437 183.152 83.4291 183.259 83.8304 183.474C84.2411 183.688 84.5537 183.973 84.7684 184.328C84.9831 184.673 85.0904 185.046 85.0904 185.448C85.0904 186.101 84.8991 186.633 84.5164 187.044C84.1337 187.445 83.5737 187.758 82.8364 187.982C83.4244 188.187 83.8771 188.49 84.1944 188.892C84.5117 189.293 84.6704 189.769 84.6704 190.32C84.6704 190.917 84.5164 191.44 84.2084 191.888C83.9004 192.336 83.4757 192.681 82.9344 192.924C82.4024 193.166 81.7911 193.288 81.1004 193.288C80.5684 193.288 80.0644 193.218 79.5884 193.078C79.1217 192.928 78.7251 192.728 78.3984 192.476L79.1404 191.482C79.3737 191.678 79.6537 191.841 79.9804 191.972C80.3071 192.102 80.6804 192.168 81.1004 192.168C81.7351 192.168 82.2624 192.014 82.6824 191.706C83.1024 191.398 83.3124 190.954 83.3124 190.376C83.3124 189.862 83.1117 189.428 82.7104 189.074C82.3091 188.71 81.6931 188.528 80.8624 188.528H80.1484ZM92.8509 191.006L92.4869 193.12H91.2549L91.6189 191.006H87.4469L87.6149 190.026L91.7169 183.222L92.7949 183.684L89.0849 189.886H91.8149L92.3189 187.1H93.5509L93.0469 189.886H94.2509L94.0549 191.006H92.8509ZM97.0135 191.412C97.2655 191.636 97.5641 191.813 97.9095 191.944C98.2548 192.074 98.6328 192.14 99.0435 192.14C99.7155 192.14 100.275 191.958 100.723 191.594C101.171 191.23 101.395 190.73 101.395 190.096C101.395 189.554 101.195 189.111 100.793 188.766C100.401 188.42 99.8275 188.248 99.0715 188.248H97.6855L98.5395 183.32H103.369L103.173 184.454H99.5335L99.0715 187.114H99.3375C100.103 187.114 100.737 187.244 101.241 187.506C101.745 187.758 102.123 188.098 102.375 188.528C102.627 188.948 102.753 189.41 102.753 189.914C102.753 190.576 102.595 191.164 102.277 191.678C101.96 192.182 101.517 192.578 100.947 192.868C100.387 193.148 99.7295 193.288 98.9735 193.288C98.4135 193.288 97.8955 193.218 97.4195 193.078C96.9528 192.928 96.5655 192.732 96.2575 192.49L97.0135 191.412ZM111.466 184.44C109.235 184.44 107.789 185.592 107.126 187.898C107.397 187.599 107.719 187.361 108.092 187.184C108.475 187.006 108.904 186.918 109.38 186.918C109.884 186.918 110.332 187.034 110.724 187.268C111.125 187.492 111.438 187.809 111.662 188.22C111.886 188.621 111.998 189.088 111.998 189.62C111.998 190.301 111.853 190.922 111.564 191.482C111.275 192.032 110.869 192.471 110.346 192.798C109.823 193.124 109.212 193.288 108.512 193.288C107.924 193.288 107.401 193.157 106.944 192.896C106.487 192.634 106.127 192.256 105.866 191.762C105.614 191.267 105.488 190.665 105.488 189.956C105.488 189.125 105.609 188.318 105.852 187.534C106.104 186.74 106.477 186.026 106.972 185.392C107.476 184.748 108.106 184.239 108.862 183.866C109.618 183.483 110.5 183.292 111.508 183.292C111.592 183.292 111.699 183.296 111.83 183.306C111.97 183.306 112.087 183.31 112.18 183.32L111.984 184.468C111.909 184.458 111.821 184.454 111.718 184.454C111.625 184.444 111.541 184.44 111.466 184.44ZM109.03 187.968C108.218 187.968 107.485 188.374 106.832 189.186C106.804 189.41 106.79 189.657 106.79 189.928C106.79 190.609 106.958 191.155 107.294 191.566C107.63 191.967 108.055 192.168 108.568 192.168C108.969 192.168 109.329 192.06 109.646 191.846C109.973 191.631 110.229 191.342 110.416 190.978C110.603 190.604 110.696 190.194 110.696 189.746C110.696 189.214 110.537 188.784 110.22 188.458C109.903 188.131 109.506 187.968 109.03 187.968ZM119.962 193.12C120.158 191.944 120.386 190.931 120.648 190.082C120.918 189.232 121.236 188.49 121.6 187.856C121.973 187.221 122.416 186.638 122.93 186.106C123.443 185.574 124.04 185.028 124.722 184.468H120.06L120.256 183.32H126.458L126.29 184.328C125.664 184.85 125.118 185.354 124.652 185.84C124.185 186.316 123.779 186.801 123.434 187.296C123.098 187.781 122.804 188.308 122.552 188.878C122.309 189.447 122.09 190.077 121.894 190.768C121.707 191.458 121.534 192.242 121.376 193.12H119.962ZM130.34 187.744C129.892 187.464 129.556 187.165 129.332 186.848C129.118 186.521 129.01 186.134 129.01 185.686C129.01 185.2 129.15 184.766 129.43 184.384C129.71 184.001 130.079 183.702 130.536 183.488C131.003 183.264 131.516 183.152 132.076 183.152C132.646 183.152 133.14 183.259 133.56 183.474C133.98 183.688 134.302 183.973 134.526 184.328C134.76 184.673 134.876 185.042 134.876 185.434C134.876 186.05 134.69 186.549 134.316 186.932C133.952 187.305 133.416 187.622 132.706 187.884C133.341 188.182 133.808 188.523 134.106 188.906C134.414 189.288 134.568 189.755 134.568 190.306C134.568 190.912 134.4 191.44 134.064 191.888C133.738 192.336 133.294 192.681 132.734 192.924C132.174 193.166 131.544 193.288 130.844 193.288C130.238 193.288 129.692 193.18 129.206 192.966C128.721 192.751 128.338 192.452 128.058 192.07C127.778 191.687 127.638 191.248 127.638 190.754C127.638 190.016 127.862 189.405 128.31 188.92C128.768 188.425 129.444 188.033 130.34 187.744ZM132.006 184.188C131.717 184.188 131.437 184.244 131.166 184.356C130.905 184.468 130.69 184.636 130.522 184.86C130.354 185.074 130.27 185.345 130.27 185.672C130.27 186.026 130.41 186.348 130.69 186.638C130.98 186.918 131.334 187.16 131.754 187.366C132.268 187.216 132.706 186.988 133.07 186.68C133.434 186.362 133.616 185.998 133.616 185.588C133.616 185.205 133.467 184.878 133.168 184.608C132.879 184.328 132.492 184.188 132.006 184.188ZM130.984 192.168C131.376 192.168 131.745 192.098 132.09 191.958C132.436 191.808 132.711 191.598 132.916 191.328C133.131 191.057 133.238 190.735 133.238 190.362C133.238 189.951 133.075 189.573 132.748 189.228C132.422 188.882 131.955 188.598 131.348 188.374C130.947 188.458 130.564 188.598 130.2 188.794C129.836 188.98 129.538 189.223 129.304 189.522C129.08 189.811 128.968 190.156 128.968 190.558C128.968 191.015 129.16 191.398 129.542 191.706C129.925 192.014 130.406 192.168 130.984 192.168ZM139.403 192.14C139.972 192.14 140.509 191.846 141.013 191.258C141.517 190.66 141.872 189.718 142.077 188.43C141.424 189.036 140.71 189.34 139.935 189.34C139.45 189.34 139.002 189.232 138.591 189.018C138.18 188.794 137.849 188.476 137.597 188.066C137.354 187.655 137.233 187.165 137.233 186.596C137.233 185.952 137.382 185.373 137.681 184.86C137.98 184.337 138.39 183.922 138.913 183.614C139.436 183.306 140.024 183.152 140.677 183.152C141.582 183.152 142.296 183.436 142.819 184.006C143.071 184.276 143.262 184.594 143.393 184.958C143.524 185.322 143.589 185.756 143.589 186.26C143.589 187.137 143.505 187.996 143.337 188.836C143.178 189.666 142.926 190.418 142.581 191.09C142.245 191.762 141.802 192.298 141.251 192.7C140.71 193.092 140.061 193.288 139.305 193.288C138.764 193.288 138.274 193.185 137.835 192.98C137.406 192.774 137.042 192.513 136.743 192.196L137.709 191.3C137.942 191.561 138.194 191.766 138.465 191.916C138.745 192.065 139.058 192.14 139.403 192.14ZM142.287 186.428C142.287 185.728 142.128 185.196 141.811 184.832C141.503 184.458 141.088 184.272 140.565 184.272C140.192 184.272 139.851 184.37 139.543 184.566C139.235 184.762 138.988 185.028 138.801 185.364C138.624 185.7 138.535 186.082 138.535 186.512C138.535 187.053 138.684 187.487 138.983 187.814C139.291 188.14 139.697 188.304 140.201 188.304C140.556 188.304 140.91 188.22 141.265 188.052C141.629 187.874 141.956 187.627 142.245 187.31C142.264 187.142 142.273 186.992 142.273 186.862C142.282 186.731 142.287 186.586 142.287 186.428ZM148.507 193.288C147.574 193.288 146.86 192.961 146.365 192.308C145.88 191.645 145.637 190.749 145.637 189.62C145.637 188.836 145.721 188.061 145.889 187.296C146.057 186.521 146.314 185.826 146.659 185.21C147.005 184.584 147.443 184.085 147.975 183.712C148.517 183.338 149.151 183.152 149.879 183.152C150.813 183.152 151.522 183.483 152.007 184.146C152.502 184.799 152.749 185.69 152.749 186.82C152.749 187.604 152.665 188.383 152.497 189.158C152.329 189.923 152.073 190.618 151.727 191.244C151.382 191.86 150.939 192.354 150.397 192.728C149.865 193.101 149.235 193.288 148.507 193.288ZM148.647 192.14C149.095 192.14 149.487 191.995 149.823 191.706C150.169 191.407 150.458 191.006 150.691 190.502C150.925 189.998 151.097 189.424 151.209 188.78C151.331 188.126 151.391 187.445 151.391 186.736C151.391 185.952 151.251 185.35 150.971 184.93C150.701 184.51 150.29 184.3 149.739 184.3C149.291 184.3 148.895 184.449 148.549 184.748C148.213 185.037 147.929 185.434 147.695 185.938C147.462 186.442 147.285 187.02 147.163 187.674C147.051 188.318 146.995 188.994 146.995 189.704C146.995 190.488 147.135 191.09 147.415 191.51C147.695 191.93 148.106 192.14 148.647 192.14ZM162.001 192L163.247 184.958L161.161 186.414L160.587 185.406L163.863 183.32H164.787L163.261 192H164.927L164.731 193.12H159.803L159.999 192H162.001ZM174.886 185.518C174.886 186.003 174.769 186.442 174.536 186.834C174.312 187.216 174.013 187.566 173.64 187.884C173.266 188.201 172.865 188.509 172.436 188.808C172.016 189.097 171.605 189.4 171.204 189.718C170.812 190.026 170.471 190.362 170.182 190.726C169.892 191.09 169.701 191.505 169.608 191.972H174.06L173.864 193.12H168.236C168.226 193.045 168.217 192.961 168.208 192.868C168.198 192.774 168.194 192.686 168.194 192.602C168.194 191.948 168.32 191.374 168.572 190.88C168.833 190.376 169.164 189.928 169.566 189.536C169.976 189.144 170.406 188.784 170.854 188.458C171.311 188.131 171.74 187.823 172.142 187.534C172.552 187.235 172.884 186.932 173.136 186.624C173.397 186.316 173.528 185.98 173.528 185.616C173.528 185.205 173.388 184.878 173.108 184.636C172.828 184.393 172.482 184.272 172.072 184.272C171.67 184.272 171.306 184.346 170.98 184.496C170.662 184.645 170.345 184.855 170.028 185.126L169.44 184.174C169.822 183.866 170.238 183.618 170.686 183.432C171.134 183.245 171.647 183.152 172.226 183.152C172.758 183.152 173.22 183.254 173.612 183.46C174.013 183.665 174.326 183.945 174.55 184.3C174.774 184.654 174.886 185.06 174.886 185.518ZM179.51 187.744C179.062 187.464 178.726 187.165 178.502 186.848C178.288 186.521 178.18 186.134 178.18 185.686C178.18 185.2 178.32 184.766 178.6 184.384C178.88 184.001 179.249 183.702 179.706 183.488C180.173 183.264 180.686 183.152 181.246 183.152C181.816 183.152 182.31 183.259 182.73 183.474C183.15 183.688 183.472 183.973 183.696 184.328C183.93 184.673 184.046 185.042 184.046 185.434C184.046 186.05 183.86 186.549 183.486 186.932C183.122 187.305 182.586 187.622 181.876 187.884C182.511 188.182 182.978 188.523 183.276 188.906C183.584 189.288 183.738 189.755 183.738 190.306C183.738 190.912 183.57 191.44 183.234 191.888C182.908 192.336 182.464 192.681 181.904 192.924C181.344 193.166 180.714 193.288 180.014 193.288C179.408 193.288 178.862 193.18 178.376 192.966C177.891 192.751 177.508 192.452 177.228 192.07C176.948 191.687 176.808 191.248 176.808 190.754C176.808 190.016 177.032 189.405 177.48 188.92C177.938 188.425 178.614 188.033 179.51 187.744ZM181.176 184.188C180.887 184.188 180.607 184.244 180.336 184.356C180.075 184.468 179.86 184.636 179.692 184.86C179.524 185.074 179.44 185.345 179.44 185.672C179.44 186.026 179.58 186.348 179.86 186.638C180.15 186.918 180.504 187.16 180.924 187.366C181.438 187.216 181.876 186.988 182.24 186.68C182.604 186.362 182.786 185.998 182.786 185.588C182.786 185.205 182.637 184.878 182.338 184.608C182.049 184.328 181.662 184.188 181.176 184.188ZM180.154 192.168C180.546 192.168 180.915 192.098 181.26 191.958C181.606 191.808 181.881 191.598 182.086 191.328C182.301 191.057 182.408 190.735 182.408 190.362C182.408 189.951 182.245 189.573 181.918 189.228C181.592 188.882 181.125 188.598 180.518 188.374C180.117 188.458 179.734 188.598 179.37 188.794C179.006 188.98 178.708 189.223 178.474 189.522C178.25 189.811 178.138 190.156 178.138 190.558C178.138 191.015 178.33 191.398 178.712 191.706C179.095 192.014 179.576 192.168 180.154 192.168ZM188.573 192.14C189.142 192.14 189.679 191.846 190.183 191.258C190.687 190.66 191.041 189.718 191.247 188.43C190.593 189.036 189.879 189.34 189.105 189.34C188.619 189.34 188.171 189.232 187.761 189.018C187.35 188.794 187.019 188.476 186.767 188.066C186.524 187.655 186.403 187.165 186.403 186.596C186.403 185.952 186.552 185.373 186.851 184.86C187.149 184.337 187.56 183.922 188.083 183.614C188.605 183.306 189.193 183.152 189.847 183.152C190.752 183.152 191.466 183.436 191.989 184.006C192.241 184.276 192.432 184.594 192.563 184.958C192.693 185.322 192.759 185.756 192.759 186.26C192.759 187.137 192.675 187.996 192.507 188.836C192.348 189.666 192.096 190.418 191.751 191.09C191.415 191.762 190.971 192.298 190.421 192.7C189.879 193.092 189.231 193.288 188.475 193.288C187.933 193.288 187.443 193.185 187.005 192.98C186.575 192.774 186.211 192.513 185.913 192.196L186.879 191.3C187.112 191.561 187.364 191.766 187.635 191.916C187.915 192.065 188.227 192.14 188.573 192.14ZM191.457 186.428C191.457 185.728 191.298 185.196 190.981 184.832C190.673 184.458 190.257 184.272 189.735 184.272C189.361 184.272 189.021 184.37 188.713 184.566C188.405 184.762 188.157 185.028 187.971 185.364C187.793 185.7 187.705 186.082 187.705 186.512C187.705 187.053 187.854 187.487 188.153 187.814C188.461 188.14 188.867 188.304 189.371 188.304C189.725 188.304 190.08 188.22 190.435 188.052C190.799 187.874 191.125 187.627 191.415 187.31C191.433 187.142 191.443 186.992 191.443 186.862C191.452 186.731 191.457 186.586 191.457 186.428Z" fill="white"/>
<path d="M321.538 34.5116H336.795V61.4833H321.538V34.5116Z" fill="#FF5F00"/>
<path d="M311.221 75.0592V72.2001C311.221 71.1039 310.543 70.3893 309.381 70.3893C308.799 70.3893 308.17 70.5798 307.734 71.1994C307.395 70.6751 306.911 70.3893 306.184 70.3893C305.699 70.3893 305.215 70.5321 304.828 71.0563V70.4846H303.811V75.0592H304.828V72.5335C304.828 71.7236 305.264 71.3422 305.942 71.3422C306.62 71.3422 306.959 71.7712 306.959 72.5335V75.0592H307.976V72.5335C307.976 71.7236 308.46 71.3422 309.09 71.3422C309.768 71.3422 310.107 71.7712 310.107 72.5335V75.0592H311.221ZM326.285 70.4846H324.638V69.1027H323.621V70.4846H322.701V71.3898H323.621V73.4867C323.621 74.5352 324.057 75.1545 325.219 75.1545C325.655 75.1545 326.139 75.0116 326.479 74.821L326.188 73.9632C325.897 74.1538 325.558 74.2015 325.316 74.2015C324.832 74.2015 324.638 73.9156 324.638 73.4389V71.3898H326.285V70.4846ZM334.907 70.389C334.325 70.389 333.938 70.6751 333.696 71.0563V70.4846H332.679V75.0592H333.696V72.486C333.696 71.7236 334.035 71.2947 334.664 71.2947C334.858 71.2947 335.1 71.3424 335.294 71.39L335.585 70.437C335.391 70.3893 335.1 70.3893 334.907 70.3893V70.389ZM321.877 70.8657C321.393 70.5321 320.715 70.3893 319.988 70.3893C318.826 70.3893 318.051 70.961 318.051 71.8664C318.051 72.629 318.632 73.0578 319.649 73.2008L320.134 73.2486C320.666 73.3436 320.957 73.4867 320.957 73.725C320.957 74.0585 320.57 74.2968 319.891 74.2968C319.213 74.2968 318.68 74.0585 318.341 73.8203L317.857 74.5827C318.39 74.9639 319.116 75.1545 319.843 75.1545C321.199 75.1545 321.974 74.5352 321.974 73.6773C321.974 72.8672 321.344 72.4382 320.376 72.2954L319.891 72.2476C319.455 72.1999 319.116 72.1048 319.116 71.8189C319.116 71.4853 319.455 71.2947 319.988 71.2947C320.57 71.2947 321.151 71.5328 321.441 71.6759L321.877 70.8657ZM348.905 70.3893C348.323 70.3893 347.936 70.6751 347.694 71.0563V70.4846H346.677V75.0592H347.694V72.486C347.694 71.7236 348.033 71.2947 348.662 71.2947C348.856 71.2947 349.098 71.3424 349.292 71.39L349.583 70.437C349.389 70.3893 349.098 70.3893 348.905 70.3893ZM335.924 72.7719C335.924 74.1538 336.892 75.1545 338.394 75.1545C339.072 75.1545 339.556 75.0116 340.041 74.6305L339.556 73.8203C339.169 74.1062 338.782 74.2491 338.346 74.2491C337.522 74.2491 336.941 73.6773 336.941 72.7719C336.941 71.9142 337.522 71.3422 338.346 71.2947C338.782 71.2947 339.169 71.4375 339.556 71.7236L340.041 70.9135C339.556 70.5321 339.072 70.3893 338.394 70.3893C336.892 70.3893 335.924 71.39 335.924 72.7719ZM345.32 72.7719V70.4846H344.303V71.0563C343.964 70.6276 343.48 70.3893 342.85 70.3893C341.542 70.3893 340.525 71.39 340.525 72.7719C340.525 74.1538 341.542 75.1545 342.85 75.1545C343.528 75.1545 344.013 74.9163 344.303 74.4874V75.0592H345.32V72.7719ZM341.591 72.7719C341.591 71.9617 342.124 71.2947 342.995 71.2947C343.819 71.2947 344.4 71.9142 344.4 72.7719C344.4 73.582 343.819 74.2491 342.995 74.2491C342.124 74.2013 341.591 73.582 341.591 72.7719ZM329.433 70.3893C328.077 70.3893 327.108 71.3422 327.108 72.7719C327.108 74.2015 328.077 75.1545 329.482 75.1545C330.16 75.1545 330.838 74.9639 331.371 74.5352L330.886 73.8203C330.499 74.1062 330.015 74.2968 329.53 74.2968C328.901 74.2968 328.271 74.0109 328.125 73.2006H331.565V72.8196C331.613 71.3422 330.741 70.3893 329.433 70.3893H329.433ZM329.433 71.2469C330.063 71.2469 330.499 71.6283 330.596 72.3431H328.174C328.271 71.7236 328.707 71.2469 329.433 71.2469ZM354.669 72.7719V68.6737H353.651V71.0563C353.312 70.6276 352.828 70.3893 352.198 70.3893C350.891 70.3893 349.873 71.39 349.873 72.7719C349.873 74.1538 350.891 75.1545 352.198 75.1545C352.877 75.1545 353.361 74.9163 353.651 74.4874V75.0592H354.669V72.7719ZM350.939 72.7719C350.939 71.9617 351.472 71.2947 352.344 71.2947C353.167 71.2947 353.748 71.9142 353.748 72.7719C353.748 73.582 353.167 74.2491 352.344 74.2491C351.472 74.2013 350.939 73.582 350.939 72.7719ZM316.937 72.7719V70.4846H315.92V71.0563C315.58 70.6276 315.096 70.3893 314.466 70.3893C313.159 70.3893 312.142 71.39 312.142 72.7719C312.142 74.1538 313.159 75.1545 314.466 75.1545C315.145 75.1545 315.629 74.9163 315.92 74.4874V75.0592H316.937V72.7719ZM313.159 72.7719C313.159 71.9617 313.692 71.2947 314.563 71.2947C315.387 71.2947 315.968 71.9142 315.968 72.7719C315.968 73.582 315.387 74.2491 314.563 74.2491C313.692 74.2013 313.159 73.582 313.159 72.7719Z" fill="white"/>
<path d="M322.507 47.9975C322.507 42.5175 325.122 37.6568 329.142 34.5116C326.188 32.2243 322.458 30.8424 318.39 30.8424C308.751 30.8424 300.952 38.5144 300.952 47.9975C300.952 57.4804 308.751 65.1527 318.389 65.1527C322.458 65.1527 326.188 63.7708 329.142 61.4833C325.122 58.3859 322.507 53.4776 322.507 47.9975Z" fill="#EB001B"/>
<path d="M357.38 47.9975C357.38 57.4804 349.582 65.1527 339.943 65.1527C335.875 65.1527 332.145 63.7708 329.191 61.4833C333.259 58.3383 335.826 53.4776 335.826 47.9975C335.826 42.5175 333.211 37.6568 329.191 34.5116C332.145 32.2243 335.875 30.8424 339.943 30.8424C349.582 30.8424 357.381 38.5622 357.381 47.9975H357.38Z" fill="#F79E1B"/>
<path d="M40.335 90.1522V70.1602H45.599C48.0444 70.1602 49.855 70.6548 51.031 71.6442C52.2257 72.6335 52.823 74.0708 52.823 75.9562C52.823 77.2255 52.5337 78.3175 51.955 79.2322C51.3764 80.1282 50.5177 80.8188 49.379 81.3042C48.259 81.7895 46.8684 82.0322 45.207 82.0322H42.855V90.1522H40.335ZM37.899 86.3442V84.5242H47.475V86.3442H37.899ZM37.899 82.0322V79.9042H44.311V82.0322H37.899ZM44.843 79.9042C45.9817 79.9042 46.943 79.7828 47.727 79.5402C48.5297 79.2975 49.1457 78.8962 49.575 78.3362C50.0044 77.7762 50.219 77.0108 50.219 76.0402C50.219 74.7708 49.827 73.8282 49.043 73.2122C48.259 72.5962 47.0364 72.2882 45.375 72.2882H42.855V79.9042H44.843ZM56.5759 86.7362C57.0799 87.1842 57.6772 87.5388 58.3679 87.8002C59.0586 88.0615 59.8146 88.1922 60.6359 88.1922C61.9799 88.1922 63.0999 87.8282 63.9959 87.1002C64.8919 86.3722 65.3399 85.3735 65.3399 84.1042C65.3399 83.0215 64.9386 82.1348 64.1359 81.4442C63.3519 80.7535 62.2039 80.4082 60.6919 80.4082H57.9199L59.6279 70.5522H69.2879L68.8959 72.8202H61.6159L60.6919 78.1402H61.2239C62.7546 78.1402 64.0239 78.4015 65.0319 78.9242C66.0399 79.4282 66.7959 80.1095 67.2999 80.9682C67.8039 81.8082 68.0559 82.7322 68.0559 83.7402C68.0559 85.0655 67.7386 86.2415 67.1039 87.2682C66.4692 88.2762 65.5826 89.0695 64.4439 89.6482C63.3239 90.2082 62.0079 90.4882 60.4959 90.4882C59.3759 90.4882 58.3399 90.3482 57.3879 90.0682C56.4546 89.7695 55.6799 89.3775 55.0639 88.8922L56.5759 86.7362ZM76.109 88.3322C75.6983 89.7508 75.0543 90.9922 74.177 92.0562C73.2996 93.1202 72.2543 93.9788 71.041 94.6322L69.725 93.8482C70.6396 92.8962 71.4143 91.9348 72.049 90.9642C72.6836 89.9935 73.2343 88.8828 73.701 87.6322L76.109 88.3322ZM82.6835 90.1522C83.0755 87.8002 83.5328 85.7748 84.0555 84.0762C84.5968 82.3775 85.2315 80.8935 85.9595 79.6242C86.7062 78.3548 87.5928 77.1882 88.6195 76.1242C89.6462 75.0602 90.8408 73.9682 92.2035 72.8482H82.8795L83.2715 70.5522H95.6755L95.3395 72.5682C94.0888 73.6135 92.9968 74.6215 92.0635 75.5922C91.1302 76.5442 90.3182 77.5148 89.6275 78.5042C88.9555 79.4748 88.3675 80.5295 87.8635 81.6682C87.3782 82.8068 86.9395 84.0668 86.5475 85.4482C86.1742 86.8295 85.8288 88.3975 85.5115 90.1522H82.6835ZM98.5485 86.7362C99.0526 87.1842 99.6499 87.5388 100.341 87.8002C101.031 88.0615 101.787 88.1922 102.609 88.1922C103.953 88.1922 105.073 87.8282 105.969 87.1002C106.865 86.3722 107.313 85.3735 107.313 84.1042C107.313 83.0215 106.911 82.1348 106.109 81.4442C105.325 80.7535 104.177 80.4082 102.665 80.4082H99.8925L101.601 70.5522H111.261L110.869 72.8202H103.589L102.665 78.1402H103.197C104.727 78.1402 105.997 78.4015 107.005 78.9242C108.013 79.4282 108.769 80.1095 109.273 80.9682C109.777 81.8082 110.029 82.7322 110.029 83.7402C110.029 85.0655 109.711 86.2415 109.077 87.2682C108.442 88.2762 107.555 89.0695 106.417 89.6482C105.297 90.2082 103.981 90.4882 102.469 90.4882C101.349 90.4882 100.313 90.3482 99.3605 90.0682C98.4272 89.7695 97.6525 89.3775 97.0365 88.8922L98.5485 86.7362ZM119.986 90.4882C118.119 90.4882 116.691 89.8348 115.702 88.5282C114.731 87.2028 114.246 85.4108 114.246 83.1522C114.246 81.5842 114.414 80.0348 114.75 78.5042C115.086 76.9548 115.599 75.5642 116.29 74.3322C116.98 73.0815 117.858 72.0828 118.922 71.3362C120.004 70.5895 121.274 70.2162 122.73 70.2162C124.596 70.2162 126.015 70.8788 126.986 72.2042C127.975 73.5108 128.47 75.2935 128.47 77.5522C128.47 79.1202 128.302 80.6788 127.966 82.2282C127.63 83.7588 127.116 85.1495 126.426 86.4002C125.735 87.6322 124.848 88.6215 123.766 89.3682C122.702 90.1148 121.442 90.4882 119.986 90.4882ZM120.266 88.1922C121.162 88.1922 121.946 87.9028 122.618 87.3242C123.308 86.7268 123.887 85.9242 124.354 84.9162C124.82 83.9082 125.166 82.7602 125.39 81.4722C125.632 80.1655 125.754 78.8028 125.754 77.3842C125.754 75.8162 125.474 74.6122 124.914 73.7722C124.372 72.9322 123.551 72.5122 122.45 72.5122C121.554 72.5122 120.76 72.8108 120.07 73.4082C119.398 73.9868 118.828 74.7802 118.362 75.7882C117.895 76.7962 117.54 77.9535 117.298 79.2602C117.074 80.5482 116.962 81.9015 116.962 83.3202C116.962 84.8882 117.242 86.0922 117.802 86.9322C118.362 87.7722 119.183 88.1922 120.266 88.1922ZM134.871 88.3322C134.46 89.7508 133.816 90.9922 132.939 92.0562C132.061 93.1202 131.016 93.9788 129.803 94.6322L128.487 93.8482C129.401 92.8962 130.176 91.9348 130.811 90.9642C131.445 89.9935 131.996 88.8828 132.463 87.6322L134.871 88.3322ZM152.953 74.9482C152.953 75.9188 152.72 76.7962 152.253 77.5802C151.805 78.3455 151.208 79.0455 150.461 79.6802C149.715 80.3148 148.912 80.9308 148.053 81.5282C147.213 82.1068 146.392 82.7135 145.589 83.3482C144.805 83.9642 144.124 84.6362 143.545 85.3642C142.967 86.0922 142.584 86.9228 142.397 87.8562H151.301L150.909 90.1522H139.653C139.635 90.0028 139.616 89.8348 139.597 89.6482C139.579 89.4615 139.569 89.2842 139.569 89.1162C139.569 87.8095 139.821 86.6615 140.325 85.6722C140.848 84.6642 141.511 83.7682 142.313 82.9842C143.135 82.2002 143.993 81.4815 144.889 80.8282C145.804 80.1748 146.663 79.5588 147.465 78.9802C148.287 78.3828 148.949 77.7762 149.453 77.1602C149.976 76.5442 150.237 75.8722 150.237 75.1442C150.237 74.3228 149.957 73.6695 149.397 73.1842C148.837 72.6988 148.147 72.4562 147.325 72.4562C146.523 72.4562 145.795 72.6055 145.141 72.9042C144.507 73.2028 143.872 73.6228 143.237 74.1642L142.061 72.2602C142.827 71.6442 143.657 71.1495 144.553 70.7762C145.449 70.4028 146.476 70.2162 147.633 70.2162C148.697 70.2162 149.621 70.4215 150.405 70.8322C151.208 71.2428 151.833 71.8028 152.281 72.5122C152.729 73.2215 152.953 74.0335 152.953 74.9482ZM161.958 90.4882C160.092 90.4882 158.664 89.8348 157.674 88.5282C156.704 87.2028 156.218 85.4108 156.218 83.1522C156.218 81.5842 156.386 80.0348 156.722 78.5042C157.058 76.9548 157.572 75.5642 158.262 74.3322C158.953 73.0815 159.83 72.0828 160.894 71.3362C161.977 70.5895 163.246 70.2162 164.702 70.2162C166.569 70.2162 167.988 70.8788 168.958 72.2042C169.948 73.5108 170.442 75.2935 170.442 77.5522C170.442 79.1202 170.274 80.6788 169.938 82.2282C169.602 83.7588 169.089 85.1495 168.398 86.4002C167.708 87.6322 166.821 88.6215 165.738 89.3682C164.674 90.1148 163.414 90.4882 161.958 90.4882ZM162.238 88.1922C163.134 88.1922 163.918 87.9028 164.59 87.3242C165.281 86.7268 165.86 85.9242 166.326 84.9162C166.793 83.9082 167.138 82.7602 167.362 81.4722C167.605 80.1655 167.726 78.8028 167.726 77.3842C167.726 75.8162 167.446 74.6122 166.886 73.7722C166.345 72.9322 165.524 72.5122 164.422 72.5122C163.526 72.5122 162.733 72.8108 162.042 73.4082C161.37 73.9868 160.801 74.7802 160.334 75.7882C159.868 76.7962 159.513 77.9535 159.27 79.2602C159.046 80.5482 158.934 81.9015 158.934 83.3202C158.934 84.8882 159.214 86.0922 159.774 86.9322C160.334 87.7722 161.156 88.1922 162.238 88.1922Z" fill="white"/>
<path opacity="0.54" d="M38.207 50.0109L40.321 40.0149H45.375L45.137 41.1209H41.343L40.685 44.2429H41.665C42.449 44.2429 43.0604 44.3549 43.499 44.5789C43.9377 44.8029 44.2457 45.1015 44.423 45.4749C44.6097 45.8482 44.703 46.2635 44.703 46.7209C44.703 47.2902 44.605 47.7802 44.409 48.1909C44.2224 48.6015 43.9517 48.9422 43.597 49.2129C43.2517 49.4835 42.8364 49.6842 42.351 49.8149C41.8657 49.9455 41.3337 50.0109 40.755 50.0109H38.207ZM40.937 48.9469C41.497 48.9469 41.959 48.8675 42.323 48.7089C42.687 48.5502 42.9577 48.3122 43.135 47.9949C43.3217 47.6775 43.415 47.2855 43.415 46.8189C43.415 46.2682 43.261 45.8809 42.953 45.6569C42.645 45.4329 42.2157 45.3209 41.665 45.3209H40.461L39.677 48.9469H40.937ZM48.2644 50.1509C47.863 50.1509 47.5084 50.0575 47.2004 49.8709C46.9017 49.6749 46.6637 49.3855 46.4864 49.0029C46.3184 48.6202 46.2344 48.1489 46.2344 47.5889C46.2344 47.0289 46.2904 46.4922 46.4024 45.9789C46.5237 45.4562 46.6917 44.9755 46.9064 44.5369C47.121 44.0982 47.3777 43.7202 47.6764 43.4029C47.9844 43.0762 48.325 42.8242 48.6984 42.6469C49.081 42.4602 49.487 42.3669 49.9164 42.3669C50.243 42.3669 50.5277 42.4275 50.7704 42.5489C51.0224 42.6702 51.2324 42.8289 51.4004 43.0249C51.5684 43.2209 51.7037 43.4355 51.8064 43.6689H51.8764L52.3244 42.5069H53.2624L51.6664 50.0109H50.6864L50.8684 48.6249H50.8124C50.5977 48.8955 50.3597 49.1475 50.0984 49.3809C49.837 49.6142 49.5524 49.8009 49.2444 49.9409C48.9457 50.0809 48.619 50.1509 48.2644 50.1509ZM48.6704 49.1289C49.0157 49.1289 49.3517 49.0029 49.6784 48.7509C50.0144 48.4989 50.3177 48.1582 50.5884 47.7289C50.859 47.2995 51.0644 46.8189 51.2044 46.2869C51.279 46.0162 51.3257 45.7689 51.3444 45.5449C51.3724 45.3115 51.3864 45.0969 51.3864 44.9009C51.3864 44.4622 51.265 44.1029 51.0224 43.8229C50.7797 43.5429 50.453 43.4029 50.0424 43.4029C49.753 43.4029 49.4777 43.4775 49.2164 43.6269C48.9644 43.7762 48.731 43.9862 48.5164 44.2569C48.3017 44.5182 48.1197 44.8262 47.9704 45.1809C47.821 45.5355 47.7044 45.9229 47.6204 46.3429C47.5364 46.7535 47.4944 47.1782 47.4944 47.6169C47.4944 48.1209 47.597 48.4989 47.8024 48.7509C48.0077 49.0029 48.297 49.1289 48.6704 49.1289ZM53.4774 50.1089C53.3561 50.1089 53.2441 50.0949 53.1414 50.0669C53.0387 50.0482 52.9594 50.0295 52.9034 50.0109V48.9469C52.9687 48.9749 53.0387 48.9982 53.1134 49.0169C53.1881 49.0262 53.2721 49.0309 53.3654 49.0309C53.5894 49.0309 53.7854 48.9795 53.9534 48.8769C54.1307 48.7649 54.2941 48.5922 54.4434 48.3589C54.5927 48.1255 54.7421 47.8222 54.8914 47.4489C55.0501 47.0755 55.2181 46.6275 55.3954 46.1049C55.6101 45.4795 55.8154 44.9382 56.0114 44.4809C56.2074 44.0235 56.4267 43.6455 56.6694 43.3469C56.9214 43.0389 57.2294 42.8102 57.5934 42.6609C57.9574 42.5115 58.4101 42.4369 58.9514 42.4369C59.2687 42.4369 59.5767 42.4602 59.8754 42.5069C60.1741 42.5442 60.4447 42.6002 60.6874 42.6749L59.1194 50.0109H57.8734L59.2874 43.5289C59.2221 43.5102 59.1427 43.4962 59.0494 43.4869C58.9561 43.4775 58.8581 43.4729 58.7554 43.4729C58.3727 43.4729 58.0601 43.5662 57.8174 43.7529C57.5841 43.9302 57.3694 44.2382 57.1734 44.6769C56.9774 45.1155 56.7441 45.7315 56.4734 46.5249C56.2681 47.1035 56.0721 47.6169 55.8854 48.0649C55.6987 48.5035 55.4981 48.8769 55.2834 49.1849C55.0687 49.4835 54.8167 49.7122 54.5274 49.8709C54.2381 50.0295 53.8881 50.1089 53.4774 50.1089ZM63.8366 50.1509C63.4353 50.1509 63.0806 50.0575 62.7726 49.8709C62.474 49.6749 62.236 49.3855 62.0586 49.0029C61.8906 48.6202 61.8066 48.1489 61.8066 47.5889C61.8066 47.0289 61.8626 46.4922 61.9746 45.9789C62.096 45.4562 62.264 44.9755 62.4786 44.5369C62.6933 44.0982 62.95 43.7202 63.2486 43.4029C63.5566 43.0762 63.8973 42.8242 64.2706 42.6469C64.6533 42.4602 65.0593 42.3669 65.4886 42.3669C65.8153 42.3669 66.1 42.4275 66.3426 42.5489C66.5946 42.6702 66.8046 42.8289 66.9726 43.0249C67.1406 43.2209 67.276 43.4355 67.3786 43.6689H67.4486L67.8966 42.5069H68.8346L67.2386 50.0109H66.2586L66.4406 48.6249H66.3846C66.17 48.8955 65.932 49.1475 65.6706 49.3809C65.4093 49.6142 65.1246 49.8009 64.8166 49.9409C64.518 50.0809 64.1913 50.1509 63.8366 50.1509ZM64.2426 49.1289C64.588 49.1289 64.924 49.0029 65.2506 48.7509C65.5866 48.4989 65.89 48.1582 66.1606 47.7289C66.4313 47.2995 66.6366 46.8189 66.7766 46.2869C66.8513 46.0162 66.898 45.7689 66.9166 45.5449C66.9446 45.3115 66.9586 45.0969 66.9586 44.9009C66.9586 44.4622 66.8373 44.1029 66.5946 43.8229C66.352 43.5429 66.0253 43.4029 65.6146 43.4029C65.3253 43.4029 65.05 43.4775 64.7886 43.6269C64.5366 43.7762 64.3033 43.9862 64.0886 44.2569C63.874 44.5182 63.692 44.8262 63.5426 45.1809C63.3933 45.5355 63.2766 45.9229 63.1926 46.3429C63.1086 46.7535 63.0666 47.1782 63.0666 47.6169C63.0666 48.1209 63.1693 48.4989 63.3746 48.7509C63.58 49.0029 63.8693 49.1289 64.2426 49.1289ZM69.4837 50.0109L71.0797 42.5069H72.2977L71.6537 45.6289H75.1817L75.8537 42.5069H77.0857L75.5037 50.0109H74.2577L74.9577 46.6509H71.4297L70.7157 50.0109H69.4837ZM80.9579 50.1509C80.4072 50.1509 79.9219 50.0482 79.5019 49.8429C79.0819 49.6375 78.7552 49.3295 78.5219 48.9189C78.2885 48.4989 78.1719 47.9762 78.1719 47.3509C78.1719 46.8095 78.2279 46.2962 78.3399 45.8109C78.4612 45.3162 78.6339 44.8589 78.8579 44.4389C79.0819 44.0189 79.3525 43.6549 79.6699 43.3469C79.9872 43.0389 80.3465 42.8009 80.7479 42.6329C81.1585 42.4555 81.6065 42.3669 82.0919 42.3669C82.4185 42.3669 82.7452 42.3995 83.0719 42.4649C83.3985 42.5302 83.6925 42.6189 83.9539 42.7309L83.6039 43.7529C83.4172 43.6689 83.1932 43.5895 82.9319 43.5149C82.6799 43.4402 82.4045 43.4029 82.1059 43.4029C81.7885 43.4029 81.4899 43.4729 81.2099 43.6129C80.9392 43.7435 80.6919 43.9302 80.4679 44.1729C80.2532 44.4155 80.0665 44.7049 79.9079 45.0409C79.7585 45.3675 79.6419 45.7269 79.5579 46.1189C79.4739 46.5015 79.4319 46.9075 79.4319 47.3369C79.4319 47.7102 79.4972 48.0322 79.6279 48.3029C79.7585 48.5735 79.9452 48.7789 80.1879 48.9189C80.4399 49.0589 80.7385 49.1289 81.0839 49.1289C81.4105 49.1289 81.7185 49.0822 82.0079 48.9889C82.3065 48.8955 82.6005 48.7882 82.8899 48.6669V49.7029C82.6285 49.8335 82.3345 49.9409 82.0079 50.0249C81.6905 50.1089 81.3405 50.1509 80.9579 50.1509Z" fill="white"/>
<defs>
<linearGradient id="paint0_linear_1_133" x1="198.862" y1="-37.6342" x2="207.01" y2="255.426" gradientUnits="userSpaceOnUse">
<stop stop-color="#9C2CF3"/>
<stop offset="1" stop-color="#3A49F9"/>
</linearGradient>
</defs>
</svg>
