<svg width="395" height="227" viewBox="0 0 395 227" fill="none" xmlns="http://www.w3.org/2000/svg">
<rect width="395" height="227" rx="30" fill="url(#paint0_linear_1_133)"/>
<mask id="mask0_1_133" style="mask-type:alpha" maskUnits="userSpaceOnUse" x="0" y="0" width="395" height="227">
<rect width="395" height="227" rx="30" fill="#ED713C"/>
</mask>
<g mask="url(#mask0_1_133)">
<ellipse opacity="0.1" cx="30.7222" cy="262.777" rx="201.262" ry="139.408" fill="black"/>
<ellipse opacity="0.08" cx="364.278" cy="-35.7772" rx="201.262" ry="139.408" fill="black"/>
</g>
<path d="M321.538 34.5116H336.795V61.4833H321.538V34.5116Z" fill="#FF5F00"/>
<path d="M311.221 75.0592V72.2001C311.221 71.1039 310.543 70.3893 309.381 70.3893C308.799 70.3893 308.17 70.5798 307.734 71.1994C307.395 70.6751 306.911 70.3893 306.184 70.3893C305.699 70.3893 305.215 70.5321 304.828 71.0563V70.4846H303.811V75.0592H304.828V72.5335C304.828 71.7236 305.264 71.3422 305.942 71.3422C306.62 71.3422 306.959 71.7712 306.959 72.5335V75.0592H307.976V72.5335C307.976 71.7236 308.46 71.3422 309.09 71.3422C309.768 71.3422 310.107 71.7712 310.107 72.5335V75.0592H311.221ZM326.285 70.4846H324.638V69.1027H323.621V70.4846H322.701V71.3898H323.621V73.4867C323.621 74.5352 324.057 75.1545 325.219 75.1545C325.655 75.1545 326.139 75.0116 326.479 74.821L326.188 73.9632C325.897 74.1538 325.558 74.2015 325.316 74.2015C324.832 74.2015 324.638 73.9156 324.638 73.4389V71.3898H326.285V70.4846ZM334.907 70.389C334.325 70.389 333.938 70.6751 333.696 71.0563V70.4846H332.679V75.0592H333.696V72.486C333.696 71.7236 334.035 71.2947 334.664 71.2947C334.858 71.2947 335.1 71.3424 335.294 71.39L335.585 70.437C335.391 70.3893 335.1 70.3893 334.907 70.3893V70.389ZM321.877 70.8657C321.393 70.5321 320.715 70.3893 319.988 70.3893C318.826 70.3893 318.051 70.961 318.051 71.8664C318.051 72.629 318.632 73.0578 319.649 73.2008L320.134 73.2486C320.666 73.3436 320.957 73.4867 320.957 73.725C320.957 74.0585 320.57 74.2968 319.891 74.2968C319.213 74.2968 318.68 74.0585 318.341 73.8203L317.857 74.5827C318.39 74.9639 319.116 75.1545 319.843 75.1545C321.199 75.1545 321.974 74.5352 321.974 73.6773C321.974 72.8672 321.344 72.4382 320.376 72.2954L319.891 72.2476C319.455 72.1999 319.116 72.1048 319.116 71.8189C319.116 71.4853 319.455 71.2947 319.988 71.2947C320.57 71.2947 321.151 71.5328 321.441 71.6759L321.877 70.8657ZM348.905 70.3893C348.323 70.3893 347.936 70.6751 347.694 71.0563V70.4846H346.677V75.0592H347.694V72.486C347.694 71.7236 348.033 71.2947 348.662 71.2947C348.856 71.2947 349.098 71.3424 349.292 71.39L349.583 70.437C349.389 70.3893 349.098 70.3893 348.905 70.3893ZM335.924 72.7719C335.924 74.1538 336.892 75.1545 338.394 75.1545C339.072 75.1545 339.556 75.0116 340.041 74.6305L339.556 73.8203C339.169 74.1062 338.782 74.2491 338.346 74.2491C337.522 74.2491 336.941 73.6773 336.941 72.7719C336.941 71.9142 337.522 71.3422 338.346 71.2947C338.782 71.2947 339.169 71.4375 339.556 71.7236L340.041 70.9135C339.556 70.5321 339.072 70.3893 338.394 70.3893C336.892 70.3893 335.924 71.39 335.924 72.7719ZM345.32 72.7719V70.4846H344.303V71.0563C343.964 70.6276 343.48 70.3893 342.85 70.3893C341.542 70.3893 340.525 71.39 340.525 72.7719C340.525 74.1538 341.542 75.1545 342.85 75.1545C343.528 75.1545 344.013 74.9163 344.303 74.4874V75.0592H345.32V72.7719ZM341.591 72.7719C341.591 71.9617 342.124 71.2947 342.995 71.2947C343.819 71.2947 344.4 71.9142 344.4 72.7719C344.4 73.582 343.819 74.2491 342.995 74.2491C342.124 74.2013 341.591 73.582 341.591 72.7719ZM329.433 70.3893C328.077 70.3893 327.108 71.3422 327.108 72.7719C327.108 74.2015 328.077 75.1545 329.482 75.1545C330.16 75.1545 330.838 74.9639 331.371 74.5352L330.886 73.8203C330.499 74.1062 330.015 74.2968 329.53 74.2968C328.901 74.2968 328.271 74.0109 328.125 73.2006H331.565V72.8196C331.613 71.3422 330.741 70.3893 329.433 70.3893H329.433ZM329.433 71.2469C330.063 71.2469 330.499 71.6283 330.596 72.3431H328.174C328.271 71.7236 328.707 71.2469 329.433 71.2469ZM354.669 72.7719V68.6737H353.651V71.0563C353.312 70.6276 352.828 70.3893 352.198 70.3893C350.891 70.3893 349.873 71.39 349.873 72.7719C349.873 74.1538 350.891 75.1545 352.198 75.1545C352.877 75.1545 353.361 74.9163 353.651 74.4874V75.0592H354.669V72.7719ZM350.939 72.7719C350.939 71.9617 351.472 71.2947 352.344 71.2947C353.167 71.2947 353.748 71.9142 353.748 72.7719C353.748 73.582 353.167 74.2491 352.344 74.2491C351.472 74.2013 350.939 73.582 350.939 72.7719ZM316.937 72.7719V70.4846H315.92V71.0563C315.58 70.6276 315.096 70.3893 314.466 70.3893C313.159 70.3893 312.142 71.39 312.142 72.7719C312.142 74.1538 313.159 75.1545 314.466 75.1545C315.145 75.1545 315.629 74.9163 315.92 74.4874V75.0592H316.937V72.7719ZM313.159 72.7719C313.159 71.9617 313.692 71.2947 314.563 71.2947C315.387 71.2947 315.968 71.9142 315.968 72.7719C315.968 73.582 315.387 74.2491 314.563 74.2491C313.692 74.2013 313.159 73.582 313.159 72.7719Z" fill="white"/>
<path d="M322.507 47.9975C322.507 42.5175 325.122 37.6568 329.142 34.5116C326.188 32.2243 322.458 30.8424 318.39 30.8424C308.751 30.8424 300.952 38.5144 300.952 47.9975C300.952 57.4804 308.751 65.1527 318.389 65.1527C322.458 65.1527 326.188 63.7708 329.142 61.4833C325.122 58.3859 322.507 53.4776 322.507 47.9975Z" fill="#EB001B"/>
<path d="M357.38 47.9975C357.38 57.4804 349.582 65.1527 339.943 65.1527C335.875 65.1527 332.145 63.7708 329.191 61.4833C333.259 58.3383 335.826 53.4776 335.826 47.9975C335.826 42.5175 333.211 37.6568 329.191 34.5116C332.145 32.2243 335.875 30.8424 339.943 30.8424C349.582 30.8424 357.381 38.5622 357.381 47.9975H357.38Z" fill="#F79E1B"/>
<defs>
<linearGradient id="paint0_linear_1_133" x1="198.862" y1="-37.6342" x2="207.01" y2="255.426" gradientUnits="userSpaceOnUse">
<stop stop-color="#9C2CF3"/>
<stop offset="1" stop-color="#3A49F9"/>
</linearGradient>
</defs>
</svg>
