<svg width="187" height="28" viewBox="0 0 187 28" fill="none" xmlns="http://www.w3.org/2000/svg">
<g clip-path="url(#clip0_1_30)">
<path d="M23.3333 18.0833C21.875 18.0833 20.475 17.85 19.1683 17.4183C18.76 17.29 18.305 17.3833 17.9783 17.6983L15.4117 20.265C12.11 18.585 9.40333 15.89 7.72333 12.5767L10.29 9.99833C10.6167 9.695 10.71 9.24 10.5817 8.83167C10.15 7.525 9.91667 6.125 9.91667 4.66667C9.91667 4.025 9.39167 3.5 8.75 3.5H4.66667C4.025 3.5 3.5 4.025 3.5 4.66667C3.5 15.6217 12.3783 24.5 23.3333 24.5C23.975 24.5 24.5 23.975 24.5 23.3333V19.25C24.5 18.6083 23.975 18.0833 23.3333 18.0833ZM22.1667 14H24.5C24.5 8.20167 19.7983 3.5 14 3.5V5.83333C18.515 5.83333 22.1667 9.485 22.1667 14ZM17.5 14H19.8333C19.8333 10.78 17.22 8.16667 14 8.16667V10.5C15.9367 10.5 17.5 12.0633 17.5 14Z" fill="#1521CF"/>
</g>
<path d="M45.104 13.984C44.5067 13.7493 44.048 13.408 43.728 12.96C43.408 12.512 43.248 11.968 43.248 11.328C43.248 10.752 43.392 10.2347 43.68 9.776C43.968 9.30667 44.3947 8.93867 44.96 8.672C45.536 8.39467 46.2293 8.256 47.04 8.256C47.8507 8.256 48.5387 8.39467 49.104 8.672C49.68 8.93867 50.112 9.30667 50.4 9.776C50.6987 10.2347 50.848 10.752 50.848 11.328C50.848 11.9467 50.6827 12.4907 50.352 12.96C50.0213 13.4187 49.568 13.76 48.992 13.984C49.6533 14.1867 50.176 14.544 50.56 15.056C50.9547 15.5573 51.152 16.1653 51.152 16.88C51.152 17.5733 50.9813 18.1813 50.64 18.704C50.2987 19.216 49.8133 19.616 49.184 19.904C48.5653 20.1813 47.8507 20.32 47.04 20.32C46.2293 20.32 45.5147 20.1813 44.896 19.904C44.288 19.616 43.8133 19.216 43.472 18.704C43.1307 18.1813 42.96 17.5733 42.96 16.88C42.96 16.1653 43.152 15.552 43.536 15.04C43.92 14.528 44.4427 14.176 45.104 13.984ZM49.44 11.504C49.44 10.8533 49.2267 10.352 48.8 10C48.3733 9.648 47.7867 9.472 47.04 9.472C46.304 9.472 45.7227 9.648 45.296 10C44.8693 10.352 44.656 10.8587 44.656 11.52C44.656 12.1173 44.8747 12.5973 45.312 12.96C45.76 13.3227 46.336 13.504 47.04 13.504C47.7547 13.504 48.3307 13.3227 48.768 12.96C49.216 12.5867 49.44 12.1013 49.44 11.504ZM47.04 14.624C46.2507 14.624 45.6053 14.8107 45.104 15.184C44.6027 15.5467 44.352 16.096 44.352 16.832C44.352 17.5147 44.592 18.064 45.072 18.48C45.5627 18.896 46.2187 19.104 47.04 19.104C47.8613 19.104 48.512 18.896 48.992 18.48C49.472 18.064 49.712 17.5147 49.712 16.832C49.712 16.1173 49.4667 15.5733 48.976 15.2C48.4853 14.816 47.84 14.624 47.04 14.624ZM59.4634 13.984C58.866 13.7493 58.4074 13.408 58.0874 12.96C57.7674 12.512 57.6074 11.968 57.6074 11.328C57.6074 10.752 57.7514 10.2347 58.0394 9.776C58.3274 9.30667 58.754 8.93867 59.3194 8.672C59.8954 8.39467 60.5887 8.256 61.3994 8.256C62.21 8.256 62.898 8.39467 63.4634 8.672C64.0394 8.93867 64.4714 9.30667 64.7594 9.776C65.058 10.2347 65.2074 10.752 65.2074 11.328C65.2074 11.9467 65.042 12.4907 64.7114 12.96C64.3807 13.4187 63.9274 13.76 63.3514 13.984C64.0127 14.1867 64.5354 14.544 64.9194 15.056C65.314 15.5573 65.5114 16.1653 65.5114 16.88C65.5114 17.5733 65.3407 18.1813 64.9994 18.704C64.658 19.216 64.1727 19.616 63.5434 19.904C62.9247 20.1813 62.21 20.32 61.3994 20.32C60.5887 20.32 59.874 20.1813 59.2554 19.904C58.6474 19.616 58.1727 19.216 57.8314 18.704C57.49 18.1813 57.3194 17.5733 57.3194 16.88C57.3194 16.1653 57.5114 15.552 57.8954 15.04C58.2794 14.528 58.802 14.176 59.4634 13.984ZM63.7994 11.504C63.7994 10.8533 63.586 10.352 63.1594 10C62.7327 9.648 62.146 9.472 61.3994 9.472C60.6634 9.472 60.082 9.648 59.6554 10C59.2287 10.352 59.0154 10.8587 59.0154 11.52C59.0154 12.1173 59.234 12.5973 59.6714 12.96C60.1194 13.3227 60.6954 13.504 61.3994 13.504C62.114 13.504 62.69 13.3227 63.1274 12.96C63.5754 12.5867 63.7994 12.1013 63.7994 11.504ZM61.3994 14.624C60.61 14.624 59.9647 14.8107 59.4634 15.184C58.962 15.5467 58.7114 16.096 58.7114 16.832C58.7114 17.5147 58.9514 18.064 59.4314 18.48C59.922 18.896 60.578 19.104 61.3994 19.104C62.2207 19.104 62.8714 18.896 63.3514 18.48C63.8314 18.064 64.0714 17.5147 64.0714 16.832C64.0714 16.1173 63.826 15.5733 63.3354 15.2C62.8447 14.816 62.1994 14.624 61.3994 14.624ZM67.4451 14.096C67.4451 12.2613 67.7438 10.832 68.3411 9.808C68.9385 8.77333 69.9838 8.256 71.4771 8.256C72.9598 8.256 73.9998 8.77333 74.5971 9.808C75.1945 10.832 75.4931 12.2613 75.4931 14.096C75.4931 15.9627 75.1945 17.4133 74.5971 18.448C73.9998 19.4827 72.9598 20 71.4771 20C69.9838 20 68.9385 19.4827 68.3411 18.448C67.7438 17.4133 67.4451 15.9627 67.4451 14.096ZM74.0531 14.096C74.0531 13.168 73.9891 12.384 73.8611 11.744C73.7438 11.0933 73.4931 10.5707 73.1091 10.176C72.7358 9.78133 72.1918 9.584 71.4771 9.584C70.7518 9.584 70.1971 9.78133 69.8131 10.176C69.4398 10.5707 69.1891 11.0933 69.0611 11.744C68.9438 12.384 68.8851 13.168 68.8851 14.096C68.8851 15.056 68.9438 15.8613 69.0611 16.512C69.1891 17.1627 69.4398 17.6853 69.8131 18.08C70.1971 18.4747 70.7518 18.672 71.4771 18.672C72.1918 18.672 72.7358 18.4747 73.1091 18.08C73.4931 17.6853 73.7438 17.1627 73.8611 16.512C73.9891 15.8613 74.0531 15.056 74.0531 14.096ZM77.492 14.096C77.492 12.2613 77.7907 10.832 78.388 9.808C78.9853 8.77333 80.0307 8.256 81.524 8.256C83.0067 8.256 84.0467 8.77333 84.644 9.808C85.2413 10.832 85.54 12.2613 85.54 14.096C85.54 15.9627 85.2413 17.4133 84.644 18.448C84.0467 19.4827 83.0067 20 81.524 20C80.0307 20 78.9853 19.4827 78.388 18.448C77.7907 17.4133 77.492 15.9627 77.492 14.096ZM84.1 14.096C84.1 13.168 84.036 12.384 83.908 11.744C83.7907 11.0933 83.54 10.5707 83.156 10.176C82.7827 9.78133 82.2387 9.584 81.524 9.584C80.7987 9.584 80.244 9.78133 79.86 10.176C79.4867 10.5707 79.236 11.0933 79.108 11.744C78.9907 12.384 78.932 13.168 78.932 14.096C78.932 15.056 78.9907 15.8613 79.108 16.512C79.236 17.1627 79.4867 17.6853 79.86 18.08C80.244 18.4747 80.7987 18.672 81.524 18.672C82.2387 18.672 82.7827 18.4747 83.156 18.08C83.54 17.6853 83.7907 17.1627 83.908 16.512C84.036 15.8613 84.1 15.056 84.1 14.096ZM93.9165 13.984C93.3192 13.7493 92.8605 13.408 92.5405 12.96C92.2205 12.512 92.0605 11.968 92.0605 11.328C92.0605 10.752 92.2045 10.2347 92.4925 9.776C92.7805 9.30667 93.2072 8.93867 93.7725 8.672C94.3485 8.39467 95.0418 8.256 95.8525 8.256C96.6632 8.256 97.3512 8.39467 97.9165 8.672C98.4925 8.93867 98.9245 9.30667 99.2125 9.776C99.5112 10.2347 99.6605 10.752 99.6605 11.328C99.6605 11.9467 99.4952 12.4907 99.1645 12.96C98.8338 13.4187 98.3805 13.76 97.8045 13.984C98.4658 14.1867 98.9885 14.544 99.3725 15.056C99.7672 15.5573 99.9645 16.1653 99.9645 16.88C99.9645 17.5733 99.7938 18.1813 99.4525 18.704C99.1112 19.216 98.6258 19.616 97.9965 19.904C97.3778 20.1813 96.6632 20.32 95.8525 20.32C95.0418 20.32 94.3272 20.1813 93.7085 19.904C93.1005 19.616 92.6258 19.216 92.2845 18.704C91.9432 18.1813 91.7725 17.5733 91.7725 16.88C91.7725 16.1653 91.9645 15.552 92.3485 15.04C92.7325 14.528 93.2552 14.176 93.9165 13.984ZM98.2525 11.504C98.2525 10.8533 98.0392 10.352 97.6125 10C97.1858 9.648 96.5992 9.472 95.8525 9.472C95.1165 9.472 94.5352 9.648 94.1085 10C93.6818 10.352 93.4685 10.8587 93.4685 11.52C93.4685 12.1173 93.6872 12.5973 94.1245 12.96C94.5725 13.3227 95.1485 13.504 95.8525 13.504C96.5672 13.504 97.1432 13.3227 97.5805 12.96C98.0285 12.5867 98.2525 12.1013 98.2525 11.504ZM95.8525 14.624C95.0632 14.624 94.4178 14.8107 93.9165 15.184C93.4152 15.5467 93.1645 16.096 93.1645 16.832C93.1645 17.5147 93.4045 18.064 93.8845 18.48C94.3752 18.896 95.0312 19.104 95.8525 19.104C96.6738 19.104 97.3245 18.896 97.8045 18.48C98.2845 18.064 98.5245 17.5147 98.5245 16.832C98.5245 16.1173 98.2792 15.5733 97.7885 15.2C97.2978 14.816 96.6525 14.624 95.8525 14.624ZM101.898 14.096C101.898 12.2613 102.197 10.832 102.794 9.808C103.392 8.77333 104.437 8.256 105.93 8.256C107.413 8.256 108.453 8.77333 109.05 9.808C109.648 10.832 109.946 12.2613 109.946 14.096C109.946 15.9627 109.648 17.4133 109.05 18.448C108.453 19.4827 107.413 20 105.93 20C104.437 20 103.392 19.4827 102.794 18.448C102.197 17.4133 101.898 15.9627 101.898 14.096ZM108.506 14.096C108.506 13.168 108.442 12.384 108.314 11.744C108.197 11.0933 107.946 10.5707 107.562 10.176C107.189 9.78133 106.645 9.584 105.93 9.584C105.205 9.584 104.65 9.78133 104.266 10.176C103.893 10.5707 103.642 11.0933 103.514 11.744C103.397 12.384 103.338 13.168 103.338 14.096C103.338 15.056 103.397 15.8613 103.514 16.512C103.642 17.1627 103.893 17.6853 104.266 18.08C104.65 18.4747 105.205 18.672 105.93 18.672C106.645 18.672 107.189 18.4747 107.562 18.08C107.946 17.6853 108.197 17.1627 108.314 16.512C108.442 15.8613 108.506 15.056 108.506 14.096ZM111.945 14.096C111.945 12.2613 112.244 10.832 112.841 9.808C113.438 8.77333 114.484 8.256 115.977 8.256C117.46 8.256 118.5 8.77333 119.097 9.808C119.694 10.832 119.993 12.2613 119.993 14.096C119.993 15.9627 119.694 17.4133 119.097 18.448C118.5 19.4827 117.46 20 115.977 20C114.484 20 113.438 19.4827 112.841 18.448C112.244 17.4133 111.945 15.9627 111.945 14.096ZM118.553 14.096C118.553 13.168 118.489 12.384 118.361 11.744C118.244 11.0933 117.993 10.5707 117.609 10.176C117.236 9.78133 116.692 9.584 115.977 9.584C115.252 9.584 114.697 9.78133 114.313 10.176C113.94 10.5707 113.689 11.0933 113.561 11.744C113.444 12.384 113.385 13.168 113.385 14.096C113.385 15.056 113.444 15.8613 113.561 16.512C113.689 17.1627 113.94 17.6853 114.313 18.08C114.697 18.4747 115.252 18.672 115.977 18.672C116.692 18.672 117.236 18.4747 117.609 18.08C117.993 17.6853 118.244 17.1627 118.361 16.512C118.489 15.8613 118.553 15.056 118.553 14.096ZM128.312 13.52V14.752H121.928V13.52H128.312ZM130.805 14.096C130.805 12.2613 131.103 10.832 131.701 9.808C132.298 8.77333 133.343 8.256 134.837 8.256C136.319 8.256 137.359 8.77333 137.957 9.808C138.554 10.832 138.852 12.2613 138.852 14.096C138.852 15.9627 138.554 17.4133 137.957 18.448C137.359 19.4827 136.319 20 134.837 20C133.343 20 132.298 19.4827 131.701 18.448C131.103 17.4133 130.805 15.9627 130.805 14.096ZM137.413 14.096C137.413 13.168 137.349 12.384 137.221 11.744C137.103 11.0933 136.853 10.5707 136.469 10.176C136.095 9.78133 135.551 9.584 134.837 9.584C134.111 9.584 133.557 9.78133 133.173 10.176C132.799 10.5707 132.549 11.0933 132.421 11.744C132.303 12.384 132.245 13.168 132.245 14.096C132.245 15.056 132.303 15.8613 132.421 16.512C132.549 17.1627 132.799 17.6853 133.173 18.08C133.557 18.4747 134.111 18.672 134.837 18.672C135.551 18.672 136.095 18.4747 136.469 18.08C136.853 17.6853 137.103 17.1627 137.221 16.512C137.349 15.8613 137.413 15.056 137.413 14.096ZM142.963 13.984C142.366 13.7493 141.907 13.408 141.587 12.96C141.267 12.512 141.107 11.968 141.107 11.328C141.107 10.752 141.251 10.2347 141.539 9.776C141.827 9.30667 142.254 8.93867 142.819 8.672C143.395 8.39467 144.089 8.256 144.899 8.256C145.71 8.256 146.398 8.39467 146.963 8.672C147.539 8.93867 147.971 9.30667 148.259 9.776C148.558 10.2347 148.707 10.752 148.707 11.328C148.707 11.9467 148.542 12.4907 148.211 12.96C147.881 13.4187 147.427 13.76 146.851 13.984C147.513 14.1867 148.035 14.544 148.419 15.056C148.814 15.5573 149.011 16.1653 149.011 16.88C149.011 17.5733 148.841 18.1813 148.499 18.704C148.158 19.216 147.673 19.616 147.043 19.904C146.425 20.1813 145.71 20.32 144.899 20.32C144.089 20.32 143.374 20.1813 142.755 19.904C142.147 19.616 141.673 19.216 141.331 18.704C140.99 18.1813 140.819 17.5733 140.819 16.88C140.819 16.1653 141.011 15.552 141.395 15.04C141.779 14.528 142.302 14.176 142.963 13.984ZM147.299 11.504C147.299 10.8533 147.086 10.352 146.659 10C146.233 9.648 145.646 9.472 144.899 9.472C144.163 9.472 143.582 9.648 143.155 10C142.729 10.352 142.515 10.8587 142.515 11.52C142.515 12.1173 142.734 12.5973 143.171 12.96C143.619 13.3227 144.195 13.504 144.899 13.504C145.614 13.504 146.19 13.3227 146.627 12.96C147.075 12.5867 147.299 12.1013 147.299 11.504ZM144.899 14.624C144.11 14.624 143.465 14.8107 142.963 15.184C142.462 15.5467 142.211 16.096 142.211 16.832C142.211 17.5147 142.451 18.064 142.931 18.48C143.422 18.896 144.078 19.104 144.899 19.104C145.721 19.104 146.371 18.896 146.851 18.48C147.331 18.064 147.571 17.5147 147.571 16.832C147.571 16.1173 147.326 15.5733 146.835 15.2C146.345 14.816 145.699 14.624 144.899 14.624ZM157.265 13.52V14.752H150.881V13.52H157.265ZM159.758 14.096C159.758 12.2613 160.056 10.832 160.654 9.808C161.251 8.77333 162.296 8.256 163.79 8.256C165.272 8.256 166.312 8.77333 166.91 9.808C167.507 10.832 167.806 12.2613 167.806 14.096C167.806 15.9627 167.507 17.4133 166.91 18.448C166.312 19.4827 165.272 20 163.79 20C162.296 20 161.251 19.4827 160.654 18.448C160.056 17.4133 159.758 15.9627 159.758 14.096ZM166.366 14.096C166.366 13.168 166.302 12.384 166.174 11.744C166.056 11.0933 165.806 10.5707 165.422 10.176C165.048 9.78133 164.504 9.584 163.79 9.584C163.064 9.584 162.51 9.78133 162.126 10.176C161.752 10.5707 161.502 11.0933 161.374 11.744C161.256 12.384 161.198 13.168 161.198 14.096C161.198 15.056 161.256 15.8613 161.374 16.512C161.502 17.1627 161.752 17.6853 162.126 18.08C162.51 18.4747 163.064 18.672 163.79 18.672C164.504 18.672 165.048 18.4747 165.422 18.08C165.806 17.6853 166.056 17.1627 166.174 16.512C166.302 15.8613 166.366 15.056 166.366 14.096ZM171.917 13.984C171.319 13.7493 170.861 13.408 170.541 12.96C170.221 12.512 170.061 11.968 170.061 11.328C170.061 10.752 170.205 10.2347 170.493 9.776C170.781 9.30667 171.207 8.93867 171.773 8.672C172.349 8.39467 173.042 8.256 173.853 8.256C174.663 8.256 175.351 8.39467 175.917 8.672C176.493 8.93867 176.925 9.30667 177.213 9.776C177.511 10.2347 177.661 10.752 177.661 11.328C177.661 11.9467 177.495 12.4907 177.165 12.96C176.834 13.4187 176.381 13.76 175.805 13.984C176.466 14.1867 176.989 14.544 177.373 15.056C177.767 15.5573 177.965 16.1653 177.965 16.88C177.965 17.5733 177.794 18.1813 177.453 18.704C177.111 19.216 176.626 19.616 175.997 19.904C175.378 20.1813 174.663 20.32 173.853 20.32C173.042 20.32 172.327 20.1813 171.709 19.904C171.101 19.616 170.626 19.216 170.285 18.704C169.943 18.1813 169.773 17.5733 169.773 16.88C169.773 16.1653 169.965 15.552 170.349 15.04C170.732 14.528 171.255 14.176 171.917 13.984ZM176.253 11.504C176.253 10.8533 176.039 10.352 175.613 10C175.186 9.648 174.599 9.472 173.853 9.472C173.117 9.472 172.535 9.648 172.109 10C171.682 10.352 171.469 10.8587 171.469 11.52C171.469 12.1173 171.687 12.5973 172.125 12.96C172.573 13.3227 173.149 13.504 173.853 13.504C174.567 13.504 175.143 13.3227 175.581 12.96C176.029 12.5867 176.253 12.1013 176.253 11.504ZM173.853 14.624C173.063 14.624 172.418 14.8107 171.917 15.184C171.415 15.5467 171.164 16.096 171.164 16.832C171.164 17.5147 171.405 18.064 171.885 18.48C172.375 18.896 173.031 19.104 173.853 19.104C174.674 19.104 175.325 18.896 175.805 18.48C176.285 18.064 176.525 17.5147 176.525 16.832C176.525 16.1173 176.279 15.5733 175.789 15.2C175.298 14.816 174.653 14.624 173.853 14.624Z" fill="#1521CF"/>
<defs>
<clipPath id="clip0_1_30">
<rect width="28" height="28" fill="white"/>
</clipPath>
</defs>
</svg>
