<svg width="91" height="23" viewBox="0 0 91 23" fill="none" xmlns="http://www.w3.org/2000/svg">
<path d="M18.3103 6.576C19.2597 6.576 20.0543 6.66667 20.6943 6.848C21.345 7.02933 21.8303 7.328 22.1503 7.744C22.481 8.16 22.6463 8.71467 22.6463 9.408C22.6463 9.856 22.561 10.256 22.3903 10.608C22.2303 10.9493 21.985 11.2373 21.6543 11.472C21.3343 11.696 20.9397 11.8507 20.4703 11.936V12.016C20.9503 12.0907 21.3823 12.2293 21.7663 12.432C22.161 12.6347 22.4703 12.9227 22.6943 13.296C22.9183 13.6693 23.0303 14.1547 23.0303 14.752C23.0303 15.4453 22.8703 16.0373 22.5503 16.528C22.2303 17.008 21.7717 17.376 21.1743 17.632C20.5877 17.8773 19.8837 18 19.0623 18H15.0463V6.576H18.3103ZM18.5983 11.44C19.5797 11.44 20.2517 11.2853 20.6143 10.976C20.977 10.656 21.1583 10.1867 21.1583 9.568C21.1583 8.93867 20.9343 8.49067 20.4863 8.224C20.049 7.94667 19.345 7.808 18.3743 7.808H16.4863V11.44H18.5983ZM16.4863 12.64V16.784H18.7903C19.8037 16.784 20.5077 16.5867 20.9023 16.192C21.297 15.7973 21.4943 15.28 21.4943 14.64C21.4943 14.2347 21.4037 13.8827 21.2223 13.584C21.0517 13.2853 20.7583 13.056 20.3423 12.896C19.937 12.7253 19.3823 12.64 18.6783 12.64H16.4863ZM25.2606 18V9.424H26.6686V12.944H28.8926C29.6392 12.944 30.2526 13.0347 30.7326 13.216C31.2126 13.3973 31.5699 13.6693 31.8046 14.032C32.0392 14.384 32.1566 14.832 32.1566 15.376C32.1566 15.9093 32.0392 16.3733 31.8046 16.768C31.5806 17.1627 31.2232 17.4667 30.7326 17.68C30.2526 17.8933 29.6179 18 28.8286 18H25.2606ZM28.7006 16.864C29.3086 16.864 29.8046 16.7627 30.1886 16.56C30.5726 16.3467 30.7646 15.9787 30.7646 15.456C30.7646 14.9333 30.5886 14.5813 30.2366 14.4C29.8846 14.208 29.3779 14.112 28.7166 14.112H26.6686V16.864H28.7006ZM33.5806 18V9.424H34.9886V18H33.5806ZM39.7457 13.616L36.7857 9.424H38.3857L40.5937 12.656L42.7857 9.424H44.3697L41.4097 13.616L44.5297 18H42.9297L40.5937 14.576L38.2257 18H36.6417L39.7457 13.616ZM53.3259 13.696C53.3259 14.4107 53.2299 15.0453 53.0379 15.6C52.8566 16.144 52.5899 16.608 52.2379 16.992C51.8966 17.376 51.4753 17.6693 50.9739 17.872C50.4833 18.064 49.9339 18.16 49.3259 18.16C48.7606 18.16 48.2379 18.064 47.7579 17.872C47.2779 17.6693 46.8619 17.376 46.5099 16.992C46.1579 16.608 45.8806 16.144 45.6779 15.6C45.4859 15.0453 45.3899 14.4107 45.3899 13.696C45.3899 12.7467 45.5499 11.9467 45.8699 11.296C46.1899 10.6347 46.6486 10.1333 47.2459 9.792C47.8433 9.44 48.5526 9.264 49.3739 9.264C50.1526 9.264 50.8353 9.44 51.4219 9.792C52.0193 10.1333 52.4833 10.6347 52.8139 11.296C53.1553 11.9467 53.3259 12.7467 53.3259 13.696ZM46.8459 13.696C46.8459 14.368 46.9313 14.9547 47.1019 15.456C47.2833 15.9467 47.5606 16.3253 47.9339 16.592C48.3073 16.8587 48.7819 16.992 49.3579 16.992C49.9339 16.992 50.4086 16.8587 50.7819 16.592C51.1553 16.3253 51.4273 15.9467 51.5979 15.456C51.7793 14.9547 51.8699 14.368 51.8699 13.696C51.8699 13.0133 51.7793 12.432 51.5979 11.952C51.4166 11.472 51.1393 11.104 50.7659 10.848C50.4033 10.5813 49.9286 10.448 49.3419 10.448C48.4673 10.448 47.8326 10.736 47.4379 11.312C47.0433 11.888 46.8459 12.6827 46.8459 13.696ZM61.9254 9.424V16.816H63.1734V20.976H61.8134V18H55.8454V20.976H54.5014V16.816H55.1894C55.6801 16.1333 56.0854 15.392 56.4054 14.592C56.7361 13.7813 56.9814 12.9387 57.1414 12.064C57.3121 11.1787 57.4028 10.2987 57.4134 9.424H61.9254ZM58.6614 10.528C58.6188 11.2533 58.5068 12.0053 58.3254 12.784C58.1441 13.552 57.9094 14.288 57.6214 14.992C57.3441 15.696 57.0188 16.304 56.6454 16.816H60.5654V10.528H58.6614Z" fill="#9C9C9C"/>
<path d="M10.1207 19.25H8.82319V4.87477C8.82319 3.70344 8.474 2.74996 8.04468 2.74996H6.22814V5.49997H7.78517V22H10.1207C10.2641 22 10.3802 21.6923 10.3802 21.3125V19.9375C10.3802 19.5577 10.2641 19.25 10.1207 19.25ZM5.06425 0.0433567L1.95019 2.18063C1.71906 2.33918 1.55703 2.90895 1.55703 3.56293V19.25H0.259506C0.116129 19.25 0 19.5577 0 19.9375V21.3125C0 21.6923 0.116129 22 0.259506 22H5.70913V1.42566C5.70913 0.498397 5.39188 -0.1818 5.06425 0.0433567ZM4.28184 12.375C4.06694 12.375 3.89259 11.7592 3.89259 11C3.89259 10.2407 4.06694 9.62498 4.28184 9.62498C4.49675 9.62498 4.6711 10.2407 4.6711 11C4.6711 11.7592 4.49675 12.375 4.28184 12.375Z" fill="#9C9C9C"/>
</svg>
