<svg width="91" height="85" viewBox="0 0 91 85" fill="none" xmlns="http://www.w3.org/2000/svg">
<g opacity="0.7">
<path fill-rule="evenodd" clip-rule="evenodd" d="M45.5 71.7188C62.7762 71.7188 76.7812 58.6371 76.7812 42.5C76.7812 26.3629 62.7762 13.2812 45.5 13.2812C28.2238 13.2812 14.2188 26.3629 14.2188 42.5C14.2188 58.6371 28.2238 71.7188 45.5 71.7188ZM45.5 77.0312C65.9173 77.0312 82.4688 61.5711 82.4688 42.5C82.4688 23.4289 65.9173 7.96875 45.5 7.96875C25.0827 7.96875 8.53125 23.4289 8.53125 42.5C8.53125 61.5711 25.0827 77.0312 45.5 77.0312Z" fill="#1521CF"/>
<path fill-rule="evenodd" clip-rule="evenodd" d="M62.9769 27.9914C64.2636 28.8327 64.5765 30.4889 63.6758 31.6908L45.1914 56.3559C44.6958 57.0174 43.9049 57.4323 43.0423 57.4836C42.1797 57.5348 41.339 57.2169 40.7575 56.6195L27.5544 43.0536C26.498 41.9681 26.5836 40.2882 27.7457 39.3014C28.9078 38.3146 30.7064 38.3945 31.7628 39.48L42.5725 50.5867L59.0164 28.6442C59.9171 27.4424 61.6903 27.1501 62.9769 27.9914Z" fill="#1521CF"/>
</g>
</svg>
