<svg width="181" height="28" viewBox="0 0 181 28" fill="none" xmlns="http://www.w3.org/2000/svg">
<path d="M13.7544 0C6.16196 0 0 6.1036 0 13.6241C0 21.1446 6.16196 27.2482 13.7544 27.2482C21.3468 27.2482 27.5088 21.1446 27.5088 13.6241C27.5088 6.1036 21.3468 0 13.7544 0ZM13.7544 4.08723C16.0376 4.08723 17.8807 5.91286 17.8807 8.17446C17.8807 10.4361 16.0376 12.2617 13.7544 12.2617C11.4712 12.2617 9.62807 10.4361 9.62807 8.17446C9.62807 5.91286 11.4712 4.08723 13.7544 4.08723ZM13.7544 23.4335C10.3158 23.4335 7.27607 21.6896 5.50175 19.0465C5.54302 16.3353 11.0035 14.8503 13.7544 14.8503C16.4915 14.8503 21.9658 16.3353 22.007 19.0465C20.2327 21.6896 17.193 23.4335 13.7544 23.4335Z" fill="#9C9C9C"/>
<path d="M33.568 9.576H34.912V15.848C34.912 16.1147 34.9067 16.408 34.896 16.728C34.896 17.0373 34.8907 17.3467 34.88 17.656C34.8693 17.9653 34.8533 18.2427 34.832 18.488C34.8213 18.7227 34.8107 18.904 34.8 19.032H34.864L41.152 9.576H42.752V21H41.408V14.792C41.408 14.504 41.4133 14.1947 41.424 13.864C41.4347 13.5227 41.4453 13.1973 41.456 12.888C41.4773 12.568 41.4933 12.2853 41.504 12.04C41.5147 11.7947 41.5253 11.6133 41.536 11.496H41.472L35.168 21H33.568V9.576ZM54.8413 12.424V21H53.5773V15.528C53.5773 15.304 53.5826 15.0693 53.5933 14.824C53.6146 14.5787 53.6359 14.3387 53.6573 14.104H53.6093L50.8093 21H49.6253L46.9053 14.104H46.8573C46.8786 14.3387 46.8893 14.5787 46.8893 14.824C46.8999 15.0693 46.9053 15.32 46.9053 15.576V21H45.6413V12.424H47.5133L50.2173 19.32L52.9693 12.424H54.8413ZM58.1068 21H56.4748L58.9228 17.4C58.5921 17.3147 58.2721 17.1813 57.9628 17C57.6534 16.808 57.4028 16.5467 57.2108 16.216C57.0188 15.8747 56.9228 15.4533 56.9228 14.952C56.9228 14.1307 57.2001 13.5067 57.7548 13.08C58.3094 12.6427 59.0454 12.424 59.9628 12.424H63.8028V21H62.3948V17.592H60.3148L58.1068 21ZM58.2828 14.968C58.2828 15.4587 58.4641 15.8267 58.8268 16.072C59.2001 16.3067 59.7174 16.424 60.3788 16.424H62.3948V13.592H60.1068C59.4561 13.592 58.9868 13.72 58.6988 13.976C58.4214 14.232 58.2828 14.5627 58.2828 14.968ZM76.5579 9.416V10.824C77.7952 10.8453 78.7712 11.048 79.4859 11.432C80.2005 11.816 80.7072 12.328 81.0059 12.968C81.3045 13.5973 81.4539 14.3013 81.4539 15.08C81.4539 15.592 81.3739 16.104 81.2139 16.616C81.0645 17.1173 80.8032 17.576 80.4299 17.992C80.0565 18.3973 79.5552 18.728 78.9259 18.984C78.2965 19.24 77.5072 19.3787 76.5579 19.4V21.16H75.1339V19.4C74.1632 19.3787 73.3579 19.24 72.7179 18.984C72.0885 18.7173 71.5925 18.376 71.2299 17.96C70.8672 17.5333 70.6112 17.0693 70.4619 16.568C70.3125 16.0667 70.2379 15.5707 70.2379 15.08C70.2379 14.5147 70.3179 13.9813 70.4779 13.48C70.6485 12.968 70.9205 12.52 71.2939 12.136C71.6779 11.7413 72.1845 11.4267 72.8139 11.192C73.4432 10.9573 74.2165 10.8347 75.1339 10.824V9.416H76.5579ZM75.1339 12.04C74.2805 12.0613 73.5979 12.2 73.0859 12.456C72.5845 12.712 72.2272 13.064 72.0139 13.512C71.8005 13.9493 71.6939 14.4667 71.6939 15.064C71.6939 15.6933 71.8112 16.2427 72.0459 16.712C72.2912 17.1707 72.6645 17.528 73.1659 17.784C73.6779 18.04 74.3339 18.184 75.1339 18.216V12.04ZM76.5579 18.216C77.3792 18.184 78.0405 18.0347 78.5419 17.768C79.0539 17.5013 79.4219 17.1387 79.6459 16.68C79.8805 16.2107 79.9979 15.672 79.9979 15.064C79.9979 14.456 79.8912 13.9333 79.6779 13.496C79.4645 13.048 79.1072 12.7013 78.6059 12.456C78.1045 12.2 77.4219 12.0613 76.5579 12.04V18.216ZM86.8893 12.28C87.9346 12.28 88.7079 12.5093 89.2093 12.968C89.7106 13.4267 89.9613 14.1573 89.9613 15.16V21H88.9373L88.6653 19.784H88.6013C88.3559 20.0933 88.0999 20.3547 87.8333 20.568C87.5773 20.7707 87.2786 20.92 86.9373 21.016C86.6066 21.112 86.2013 21.16 85.7213 21.16C85.2093 21.16 84.7453 21.0693 84.3293 20.888C83.9239 20.7067 83.6039 20.4293 83.3693 20.056C83.1346 19.672 83.0173 19.192 83.0173 18.616C83.0173 17.7627 83.3533 17.1067 84.0253 16.648C84.6973 16.1787 85.7319 15.9227 87.1293 15.88L88.5853 15.832V15.32C88.5853 14.6053 88.4306 14.1093 88.1213 13.832C87.8119 13.5547 87.3746 13.416 86.8093 13.416C86.3613 13.416 85.9346 13.4853 85.5293 13.624C85.1239 13.752 84.7453 13.9013 84.3932 14.072L83.9613 13.016C84.3346 12.8133 84.7773 12.6427 85.2893 12.504C85.8013 12.3547 86.3346 12.28 86.8893 12.28ZM87.3053 16.856C86.2386 16.8987 85.4973 17.0693 85.0813 17.368C84.6759 17.6667 84.4733 18.088 84.4733 18.632C84.4733 19.112 84.6173 19.464 84.9053 19.688C85.2039 19.912 85.5826 20.024 86.0413 20.024C86.7666 20.024 87.3693 19.8267 87.8493 19.432C88.3293 19.0267 88.5693 18.408 88.5693 17.576V16.808L87.3053 16.856ZM101.81 12.424V21H100.546V15.528C100.546 15.304 100.551 15.0693 100.562 14.824C100.583 14.5787 100.605 14.3387 100.626 14.104H100.578L97.778 21H96.594L93.874 14.104H93.826C93.8473 14.3387 93.858 14.5787 93.858 14.824C93.8687 15.0693 93.874 15.32 93.874 15.576V21H92.61V12.424H94.482L97.186 19.32L99.938 12.424H101.81ZM105.876 17.656C105.876 17.752 105.87 17.8907 105.86 18.072C105.86 18.2427 105.854 18.4293 105.844 18.632C105.833 18.824 105.822 19.0107 105.812 19.192C105.801 19.3627 105.79 19.5013 105.78 19.608L110.372 12.424H112.1V21H110.788V15.944C110.788 15.7733 110.788 15.5493 110.788 15.272C110.798 14.9947 110.809 14.7227 110.82 14.456C110.83 14.1787 110.841 13.9707 110.852 13.832L106.292 21H104.548V12.424H105.876V17.656ZM121.357 21H119.933V13.592H117.405C117.298 14.9467 117.165 16.104 117.005 17.064C116.845 18.0133 116.642 18.7867 116.397 19.384C116.151 19.9813 115.858 20.4187 115.517 20.696C115.175 20.9733 114.775 21.112 114.317 21.112C114.178 21.112 114.039 21.1013 113.901 21.08C113.773 21.0693 113.666 21.0427 113.581 21V19.944C113.645 19.9653 113.714 19.9813 113.789 19.992C113.863 20.0027 113.938 20.008 114.013 20.008C114.247 20.008 114.461 19.912 114.653 19.72C114.845 19.528 115.015 19.2347 115.165 18.84C115.325 18.4453 115.469 17.9493 115.597 17.352C115.725 16.744 115.837 16.0293 115.933 15.208C116.029 14.3867 116.114 13.4587 116.189 12.424H121.357V21ZM125.407 17.656C125.407 17.752 125.401 17.8907 125.391 18.072C125.391 18.2427 125.385 18.4293 125.375 18.632C125.364 18.824 125.353 19.0107 125.343 19.192C125.332 19.3627 125.321 19.5013 125.311 19.608L129.903 12.424H131.631V21H130.319V15.944C130.319 15.7733 130.319 15.5493 130.319 15.272C130.329 14.9947 130.34 14.7227 130.351 14.456C130.361 14.1787 130.372 13.9707 130.383 13.832L125.823 21H124.079V12.424H125.407V17.656ZM134.888 21H133.256L135.704 17.4C135.373 17.3147 135.053 17.1813 134.744 17C134.435 16.808 134.184 16.5467 133.992 16.216C133.8 15.8747 133.704 15.4533 133.704 14.952C133.704 14.1307 133.981 13.5067 134.536 13.08C135.091 12.6427 135.827 12.424 136.744 12.424H140.584V21H139.176V17.592H137.096L134.888 21ZM135.064 14.968C135.064 15.4587 135.245 15.8267 135.608 16.072C135.981 16.3067 136.499 16.424 137.16 16.424H139.176V13.592H136.888C136.237 13.592 135.768 13.72 135.48 13.976C135.203 14.232 135.064 14.5627 135.064 14.968Z" fill="#9C9C9C"/>
</svg>
