<svg width="56" height="16" viewBox="0 0 56 16" fill="none" xmlns="http://www.w3.org/2000/svg">
<path d="M10.304 1.072V10.48H11.824V15.824H9.48798V12.496H2.33598V15.824H-1.70842e-05V10.48H0.879983C1.17865 9.88267 1.46665 9.25334 1.74398 8.592C2.02132 7.93067 2.27732 7.22134 2.51198 6.464C2.75732 5.70667 2.97598 4.88534 3.16798 4C3.35998 3.104 3.51998 2.128 3.64798 1.072H10.304ZM5.56798 3.088C5.49332 3.64267 5.38665 4.23467 5.24798 4.864C5.10932 5.48267 4.94398 6.11734 4.75198 6.768C4.57065 7.41867 4.36798 8.05867 4.14398 8.688C3.91998 9.31734 3.67998 9.91467 3.42398 10.48H7.88798V3.088H5.56798ZM21.3227 8.112C21.3227 8.83734 21.2214 9.48267 21.0187 10.048C20.8267 10.6133 20.5441 11.0933 20.1707 11.488C19.8081 11.872 19.3654 12.1653 18.8427 12.368C18.3201 12.56 17.7281 12.656 17.0667 12.656C16.4587 12.656 15.8934 12.56 15.3707 12.368C14.8587 12.1653 14.4161 11.872 14.0427 11.488C13.6694 11.0933 13.3761 10.6133 13.1627 10.048C12.9601 9.48267 12.8587 8.83734 12.8587 8.112C12.8587 7.14134 13.0294 6.32534 13.3707 5.664C13.7121 4.992 14.2027 4.48 14.8427 4.128C15.4827 3.776 16.2401 3.6 17.1147 3.6C17.9361 3.6 18.6614 3.776 19.2907 4.128C19.9201 4.48 20.4161 4.992 20.7787 5.664C21.1414 6.32534 21.3227 7.14134 21.3227 8.112ZM15.2907 8.112C15.2907 8.688 15.3494 9.17334 15.4667 9.568C15.5947 9.952 15.7921 10.2453 16.0587 10.448C16.3254 10.64 16.6721 10.736 17.0987 10.736C17.5254 10.736 17.8667 10.64 18.1227 10.448C18.3894 10.2453 18.5814 9.952 18.6987 9.568C18.8267 9.17334 18.8907 8.688 18.8907 8.112C18.8907 7.536 18.8267 7.056 18.6987 6.672C18.5814 6.288 18.3894 6 18.1227 5.808C17.8561 5.616 17.5094 5.52 17.0827 5.52C16.4534 5.52 15.9947 5.73867 15.7067 6.176C15.4294 6.60267 15.2907 7.248 15.2907 8.112ZM34.301 3.76V12.496H32.077V8.208C32.077 7.78134 32.0823 7.36534 32.093 6.96C32.1143 6.55467 32.141 6.18134 32.173 5.84H32.125L29.709 12.496H27.917L25.469 5.824H25.405C25.4476 6.176 25.4743 6.55467 25.485 6.96C25.5063 7.35467 25.517 7.792 25.517 8.272V12.496H23.293V3.76H26.669L28.845 9.68L31.053 3.76H34.301ZM44.729 8.112C44.729 8.83734 44.6276 9.48267 44.425 10.048C44.233 10.6133 43.9503 11.0933 43.577 11.488C43.2143 11.872 42.7716 12.1653 42.249 12.368C41.7263 12.56 41.1343 12.656 40.473 12.656C39.865 12.656 39.2996 12.56 38.777 12.368C38.265 12.1653 37.8223 11.872 37.449 11.488C37.0756 11.0933 36.7823 10.6133 36.569 10.048C36.3663 9.48267 36.265 8.83734 36.265 8.112C36.265 7.14134 36.4356 6.32534 36.777 5.664C37.1183 4.992 37.609 4.48 38.249 4.128C38.889 3.776 39.6463 3.6 40.521 3.6C41.3423 3.6 42.0676 3.776 42.697 4.128C43.3263 4.48 43.8223 4.992 44.185 5.664C44.5476 6.32534 44.729 7.14134 44.729 8.112ZM38.697 8.112C38.697 8.688 38.7556 9.17334 38.873 9.568C39.001 9.952 39.1983 10.2453 39.465 10.448C39.7316 10.64 40.0783 10.736 40.505 10.736C40.9316 10.736 41.273 10.64 41.529 10.448C41.7956 10.2453 41.9876 9.952 42.105 9.568C42.233 9.17334 42.297 8.688 42.297 8.112C42.297 7.536 42.233 7.056 42.105 6.672C41.9876 6.288 41.7956 6 41.529 5.808C41.2623 5.616 40.9156 5.52 40.489 5.52C39.8596 5.52 39.401 5.73867 39.113 6.176C38.8356 6.60267 38.697 7.248 38.697 8.112ZM55.0672 1.90735e-06C55.0139 0.554668 54.8592 1.04534 54.6032 1.472C54.3472 1.888 53.9472 2.21334 53.4032 2.448C52.8592 2.68267 52.1286 2.8 51.2112 2.8C50.2726 2.8 49.5366 2.688 49.0032 2.464C48.4806 2.22933 48.1072 1.904 47.8832 1.488C47.6592 1.072 47.5259 0.576001 47.4832 1.90735e-06H49.6112C49.6646 0.586669 49.8139 0.976002 50.0592 1.168C50.3046 1.36 50.7046 1.456 51.2592 1.456C51.7179 1.456 52.0912 1.35467 52.3792 1.152C52.6779 0.938668 52.8539 0.554668 52.9072 1.90735e-06H55.0672ZM49.0032 7.216C49.0032 7.39734 48.9926 7.62134 48.9712 7.888C48.9606 8.15467 48.9446 8.42667 48.9232 8.704C48.9126 8.98134 48.8966 9.22667 48.8752 9.44C48.8539 9.65334 48.8379 9.80267 48.8272 9.888L52.8592 3.76H55.7232V12.496H53.4192V9.008C53.4192 8.72 53.4299 8.40534 53.4512 8.064C53.4726 7.712 53.4939 7.38667 53.5152 7.088C53.5472 6.77867 53.5686 6.544 53.5792 6.384L49.5632 12.496H46.6992V3.76H49.0032V7.216Z" fill="#0138F9"/>
</svg>
