<svg width="73" height="16" viewBox="0 0 73 16" fill="none" xmlns="http://www.w3.org/2000/svg">
<path d="M9.312 11.424H6.56L2.416 5.63201V11.424H-2.38419e-06V1.04904e-05H2.416V5.53601L6.512 1.04904e-05H9.088L4.928 5.48801L9.312 11.424ZM15.422 2.52801C16.4033 2.52801 17.198 2.91201 17.806 3.68001C18.414 4.43734 18.718 5.55734 18.718 7.04001C18.718 8.03201 18.574 8.86934 18.286 9.55201C17.998 10.224 17.6033 10.7307 17.102 11.072C16.6007 11.4133 16.0193 11.584 15.358 11.584C14.942 11.584 14.5793 11.5307 14.27 11.424C13.9713 11.3173 13.7153 11.1787 13.502 11.008C13.2887 10.8373 13.102 10.656 12.942 10.464H12.814C12.8567 10.6667 12.8887 10.88 12.91 11.104C12.9313 11.3173 12.942 11.5307 12.942 11.744V15.264H10.558V2.68801H12.494L12.83 3.82401H12.942C13.102 3.58934 13.294 3.37601 13.518 3.18401C13.742 2.98134 14.0087 2.82134 14.318 2.70401C14.638 2.58668 15.006 2.52801 15.422 2.52801ZM14.654 4.43201C14.238 4.43201 13.9073 4.51734 13.662 4.68801C13.4167 4.85868 13.2353 5.12001 13.118 5.47201C13.0113 5.81334 12.9527 6.24534 12.942 6.76801V7.02401C12.942 7.58934 12.9953 8.06934 13.102 8.46401C13.2087 8.84801 13.39 9.14134 13.646 9.34401C13.902 9.54668 14.2487 9.64801 14.686 9.64801C15.0487 9.64801 15.3473 9.54668 15.582 9.34401C15.8167 9.14134 15.9927 8.84268 16.11 8.44801C16.2273 8.05334 16.286 7.57334 16.286 7.00801C16.286 6.15468 16.1527 5.51468 15.886 5.08801C15.63 4.65068 15.2193 4.43201 14.654 4.43201ZM24.283 2.52801C25.0937 2.52801 25.787 2.68268 26.363 2.99201C26.9497 3.30134 27.403 3.74934 27.723 4.33601C28.043 4.92268 28.203 5.64268 28.203 6.49601V7.64801H22.571C22.5923 8.32001 22.7897 8.84801 23.163 9.23201C23.547 9.61601 24.075 9.80801 24.747 9.80801C25.3123 9.80801 25.8243 9.75468 26.283 9.64801C26.7417 9.53068 27.2163 9.35468 27.707 9.12001V10.96C27.2803 11.1733 26.827 11.328 26.347 11.424C25.8777 11.5307 25.307 11.584 24.635 11.584C23.7603 11.584 22.987 11.424 22.315 11.104C21.643 10.7733 21.115 10.2773 20.731 9.61601C20.347 8.95468 20.155 8.12268 20.155 7.12001C20.155 6.09601 20.3257 5.24801 20.667 4.57601C21.019 3.89334 21.5043 3.38134 22.123 3.04001C22.7417 2.69868 23.4617 2.52801 24.283 2.52801ZM24.299 4.22401C23.8403 4.22401 23.4563 4.37334 23.147 4.67201C22.8483 4.97068 22.6723 5.43468 22.619 6.06401H25.963C25.963 5.71201 25.899 5.39734 25.771 5.12001C25.6537 4.84268 25.4723 4.62401 25.227 4.46401C24.9817 4.30401 24.6723 4.22401 24.299 4.22401ZM37.9921 2.68801V9.68001H39.2721V14.56H37.1281V11.424H31.2561V14.56H29.1121V9.68001H29.8481C30.2321 9.09334 30.5575 8.42668 30.8241 7.68001C31.0908 6.92268 31.3041 6.11734 31.4641 5.26401C31.6241 4.41068 31.7415 3.55201 31.8161 2.68801H37.9921ZM33.8161 4.48001C33.7308 5.12001 33.6241 5.74401 33.4961 6.35201C33.3681 6.94934 33.2081 7.52534 33.0161 8.08001C32.8348 8.63468 32.6108 9.16801 32.3441 9.68001H35.6081V4.48001H33.8161ZM43.0651 6.14401C43.0651 6.32534 43.0545 6.54934 43.0331 6.81601C43.0225 7.08268 43.0065 7.35468 42.9851 7.63201C42.9745 7.90934 42.9585 8.15468 42.9371 8.36801C42.9158 8.58134 42.8998 8.73068 42.8891 8.81601L46.9211 2.68801H49.7851V11.424H47.4811V7.93601C47.4811 7.64801 47.4918 7.33334 47.5131 6.99201C47.5345 6.64001 47.5558 6.31468 47.5771 6.01601C47.6091 5.70668 47.6305 5.47201 47.6411 5.31201L43.6251 11.424H40.7611V2.68801H43.0651V6.14401ZM59.5087 4.48001H56.6447V11.424H54.2607V4.48001H51.3967V2.68801H59.5087V4.48001ZM61.1205 11.424V2.68801H63.5045V6.06401H64.6565C65.5525 6.06401 66.2885 6.16001 66.8645 6.35201C67.4405 6.53334 67.8672 6.81601 68.1445 7.20001C68.4325 7.58401 68.5765 8.06401 68.5765 8.64001C68.5765 9.20534 68.4432 9.69601 68.1765 10.112C67.9205 10.528 67.5098 10.8533 66.9445 11.088C66.3898 11.312 65.6538 11.424 64.7365 11.424H61.1205ZM64.6085 9.77601C65.0778 9.77601 65.4565 9.69068 65.7445 9.52001C66.0432 9.34934 66.1925 9.06668 66.1925 8.67201C66.1925 8.33068 66.0538 8.08534 65.7765 7.93601C65.5098 7.78668 65.1098 7.71201 64.5765 7.71201H63.5045V9.77601H64.6085ZM69.8405 11.424V2.68801H72.2245V11.424H69.8405Z" fill="#9C9C9C"/>
</svg>
