<svg width="71" height="16" viewBox="0 0 71 16" fill="none" xmlns="http://www.w3.org/2000/svg">
<path d="M5.35999 2.01601C4.90132 2.01601 4.49066 2.10668 4.12799 2.28801C3.77599 2.46935 3.47732 2.73068 3.23199 3.07201C2.98666 3.40268 2.79999 3.80801 2.67199 4.28801C2.55466 4.76801 2.49599 5.30668 2.49599 5.90401C2.49599 6.71468 2.59199 7.40801 2.78399 7.98401C2.98666 8.54935 3.30132 8.98135 3.72799 9.28001C4.15466 9.57868 4.69866 9.72801 5.35999 9.72801C5.82932 9.72801 6.29332 9.67468 6.75199 9.56801C7.22132 9.46135 7.72799 9.31201 8.27199 9.12001V11.152C7.77066 11.3547 7.27466 11.504 6.78399 11.6C6.29332 11.696 5.74399 11.744 5.13599 11.744C3.96266 11.744 2.99199 11.504 2.22399 11.024C1.46666 10.5333 0.906658 9.85068 0.543991 8.97601C0.181324 8.09068 -9.0003e-06 7.06135 -9.0003e-06 5.88801C-9.0003e-06 5.02401 0.117324 4.23468 0.351991 3.52001C0.586658 2.79468 0.927991 2.17068 1.37599 1.64801C1.83466 1.12535 2.39466 0.720015 3.05599 0.432014C3.72799 0.144014 4.49599 1.43051e-05 5.35999 1.43051e-05C5.92532 1.43051e-05 6.49066 0.074681 7.05599 0.224014C7.63199 0.362681 8.18132 0.554681 8.70399 0.800014L7.91999 2.76801C7.49332 2.56535 7.06132 2.38935 6.62399 2.24001C6.19732 2.09068 5.77599 2.01601 5.35999 2.01601ZM14.1075 2.68801C14.9182 2.68801 15.6115 2.84268 16.1875 3.15201C16.7742 3.46135 17.2275 3.90935 17.5475 4.49601C17.8675 5.08268 18.0275 5.80268 18.0275 6.65601V7.80801H12.3955C12.4168 8.48001 12.6142 9.00801 12.9875 9.39201C13.3715 9.77601 13.8995 9.96801 14.5715 9.96801C15.1368 9.96801 15.6488 9.91468 16.1075 9.80801C16.5662 9.69068 17.0408 9.51468 17.5315 9.28001V11.12C17.1048 11.3333 16.6515 11.488 16.1715 11.584C15.7022 11.6907 15.1315 11.744 14.4595 11.744C13.5848 11.744 12.8115 11.584 12.1395 11.264C11.4675 10.9333 10.9395 10.4373 10.5555 9.77601C10.1715 9.11468 9.97949 8.28268 9.97949 7.28001C9.97949 6.25601 10.1502 5.40801 10.4915 4.73601C10.8435 4.05335 11.3288 3.54135 11.9475 3.20001C12.5662 2.85868 13.2862 2.68801 14.1075 2.68801ZM14.1235 4.38401C13.6648 4.38401 13.2808 4.53335 12.9715 4.83201C12.6728 5.13068 12.4968 5.59468 12.4435 6.22401H15.7875C15.7875 5.87201 15.7235 5.55735 15.5955 5.28001C15.4782 5.00268 15.2968 4.78401 15.0515 4.62401C14.8062 4.46401 14.4968 4.38401 14.1235 4.38401ZM24.8246 2.68801C25.8059 2.68801 26.6006 3.07201 27.2086 3.84001C27.8166 4.59735 28.1206 5.71735 28.1206 7.20001C28.1206 8.19201 27.9766 9.02935 27.6886 9.71201C27.4006 10.384 27.0059 10.8907 26.5046 11.232C26.0033 11.5733 25.4219 11.744 24.7606 11.744C24.3446 11.744 23.9819 11.6907 23.6726 11.584C23.3739 11.4773 23.1179 11.3387 22.9046 11.168C22.6913 10.9973 22.5046 10.816 22.3446 10.624H22.2166C22.2593 10.8267 22.2913 11.04 22.3126 11.264C22.3339 11.4773 22.3446 11.6907 22.3446 11.904V15.424H19.9606V2.84801H21.8966L22.2326 3.98401H22.3446C22.5046 3.74935 22.6966 3.53601 22.9206 3.34401C23.1446 3.14135 23.4113 2.98135 23.7206 2.86401C24.0406 2.74668 24.4086 2.68801 24.8246 2.68801ZM24.0566 4.59201C23.6406 4.59201 23.3099 4.67735 23.0646 4.84801C22.8193 5.01868 22.6379 5.28001 22.5206 5.63201C22.4139 5.97335 22.3553 6.40535 22.3446 6.92801V7.18401C22.3446 7.74935 22.3979 8.22935 22.5046 8.62401C22.6113 9.00801 22.7926 9.30135 23.0486 9.50401C23.3046 9.70668 23.6513 9.80801 24.0886 9.80801C24.4513 9.80801 24.7499 9.70668 24.9846 9.50401C25.2193 9.30135 25.3953 9.00268 25.5126 8.60801C25.6299 8.21335 25.6886 7.73335 25.6886 7.16801C25.6886 6.31468 25.5553 5.67468 25.2886 5.24801C25.0326 4.81068 24.6219 4.59201 24.0566 4.59201ZM37.8296 5.13601C37.8296 5.60535 37.6803 6.00535 37.3816 6.33601C37.0936 6.66668 36.6616 6.88001 36.0856 6.97601V7.04001C36.6936 7.11468 37.1789 7.32268 37.5416 7.66401C37.915 8.00535 38.1016 8.44268 38.1016 8.97601C38.1016 9.34935 38.0269 9.69601 37.8776 10.016C37.7389 10.336 37.5149 10.6133 37.2056 10.848C36.8963 11.0827 36.4963 11.264 36.0056 11.392C35.5256 11.52 34.9389 11.584 34.2456 11.584H30.0856V2.84801H34.2456C34.9283 2.84801 35.5363 2.92268 36.0696 3.07201C36.6136 3.21068 37.0403 3.44535 37.3496 3.77601C37.6696 4.10668 37.8296 4.56001 37.8296 5.13601ZM35.6376 8.84801C35.6376 8.50668 35.5043 8.26135 35.2376 8.11201C34.9709 7.95201 34.5709 7.87201 34.0376 7.87201H32.4696V9.93601H34.0856C34.5336 9.93601 34.9016 9.85601 35.1896 9.69601C35.4883 9.52535 35.6376 9.24268 35.6376 8.84801ZM35.4136 5.32801C35.4136 5.05068 35.3069 4.84801 35.0936 4.72001C34.8803 4.59201 34.5656 4.52801 34.1496 4.52801H32.4696V6.25601H33.8776C34.3789 6.25601 34.7576 6.18668 35.0136 6.04801C35.2803 5.89868 35.4136 5.65868 35.4136 5.32801ZM42.4521 6.30401C42.4521 6.48535 42.4414 6.70935 42.4201 6.97601C42.4094 7.24268 42.3934 7.51468 42.3721 7.79201C42.3614 8.06935 42.3454 8.31468 42.3241 8.52801C42.3028 8.74135 42.2868 8.89068 42.2761 8.97601L46.3081 2.84801H49.1721V11.584H46.8681V8.09601C46.8681 7.80801 46.8788 7.49335 46.9001 7.15201C46.9214 6.80001 46.9428 6.47468 46.9641 6.17601C46.9961 5.86668 47.0174 5.63201 47.0281 5.47201L43.0121 11.584H40.1481V2.84801H42.4521V6.30401ZM55.2157 11.744C54.3517 11.744 53.6157 11.5893 53.0077 11.28C52.3997 10.96 51.9357 10.4693 51.6157 9.80801C51.2957 9.14668 51.1357 8.29868 51.1357 7.26401C51.1357 6.19735 51.3171 5.32801 51.6797 4.65601C52.0424 3.98401 52.5437 3.48801 53.1837 3.16801C53.8344 2.84801 54.5811 2.68801 55.4237 2.68801C56.0211 2.68801 56.5384 2.74668 56.9757 2.86401C57.4237 2.98135 57.8131 3.12001 58.1437 3.28001L57.4397 5.12001C57.0664 4.97068 56.7144 4.84801 56.3837 4.75201C56.0637 4.65601 55.7437 4.60801 55.4237 4.60801C55.0077 4.60801 54.6611 4.70935 54.3837 4.91201C54.1064 5.10401 53.8984 5.39735 53.7597 5.79201C53.6317 6.17601 53.5677 6.66135 53.5677 7.24801C53.5677 7.82401 53.6371 8.30401 53.7757 8.68801C53.9251 9.06135 54.1384 9.34401 54.4157 9.53601C54.6931 9.71735 55.0291 9.80801 55.4237 9.80801C55.9251 9.80801 56.3677 9.74401 56.7517 9.61601C57.1357 9.47735 57.5091 9.29068 57.8717 9.05601V11.088C57.5091 11.3227 57.1251 11.488 56.7197 11.584C56.3251 11.6907 55.8237 11.744 55.2157 11.744ZM59.8825 11.584V2.84801H62.2665V6.22401H63.4185C64.3145 6.22401 65.0505 6.32001 65.6265 6.51201C66.2025 6.69335 66.6292 6.97601 66.9065 7.36001C67.1945 7.74401 67.3385 8.22401 67.3385 8.80001C67.3385 9.36535 67.2052 9.85601 66.9385 10.272C66.6825 10.688 66.2718 11.0133 65.7065 11.248C65.1518 11.472 64.4158 11.584 63.4985 11.584H59.8825ZM63.3705 9.93601C63.8398 9.93601 64.2185 9.85068 64.5065 9.68001C64.8052 9.50935 64.9545 9.22668 64.9545 8.83201C64.9545 8.49068 64.8158 8.24535 64.5385 8.09601C64.2718 7.94668 63.8718 7.87201 63.3385 7.87201H62.2665V9.93601H63.3705ZM68.6025 11.584V2.84801H70.9865V11.584H68.6025Z" fill="#9C9C9C"/>
</svg>
